<svg xmlns="http://www.w3.org/2000/svg" viewBox="0 0 286.007 401.749"><defs><style>.a{fill:rgba(0,0,0,0.8);}</style></defs><path class="a" d="M341.093,210.956c-1.424-20.316-2.9-41.321-2.9-59.316,0-89.053-21.308-101.5-23.736-102.629L261.886,28.792c-10-14.735-26.77-26.192-29.438-27.96A4.974,4.974,0,0,0,229.686,0V0H172.061A5,5,0,0,0,169.3.832c-2.668,1.768-19.441,13.225-29.438,27.961L87.291,49.011c-2.43,1.126-23.738,13.576-23.738,102.629,0,17.995-1.473,39-2.9,59.316-1.432,20.434-2.785,39.734-2.785,56.422,0,33.25,2.816,128.516,2.844,129.475a5,5,0,0,0,5,4.851c.086,0,43.817-2.263,43.817-2.263a5,5,0,0,0,4.741-4.993v-4.864c14.6,4.356,35,9.83,50.726,11.651a44.1,44.1,0,0,0,5.075.3c17.486,0,25.061-11.439,26.651-18.036.025-.105,4.151-23.748,4.151-23.748l4.083,23.416c1.179,6.9,7.977,18.579,25.261,18.579a44.341,44.341,0,0,0,6.721-.538c15.592-2.4,35.968-7.785,50.541-11.953v5.19a5,5,0,0,0,4.741,4.993s43.731,2.263,43.817,2.263a5,5,0,0,0,5-4.851c.028-.959,2.842-96.225,2.842-129.475C343.878,250.69,342.526,231.39,341.093,210.956ZM234.585,78.582c5.966-29.164,7.316-47.043,6.334-58.313,8.255,7.572,16.627,17.361,18.19,26.382L245,49.615a5,5,0,0,0-1.863,8.973l15.6,11.055c-3.774,16.543-22.278,93.147-50.207,136.691C211.946,189.665,230.215,99.947,234.585,78.582ZM174.158,10h53.435c1.541,1.666,3.509,5.9,3.609,16.627h-60.65C170.654,15.913,172.617,11.666,174.158,10ZM147.3,35.742c.008-.012.014-.023.021-.035a83.062,83.062,0,0,1,13.512-15.423c-.98,11.271.371,29.145,6.334,58.3,4.411,21.564,22.675,111.248,26.065,127.781-27.915-43.511-46.434-120.169-50.213-136.721l15.6-11.055a5,5,0,0,0-1.863-8.973L142.642,46.65A30.46,30.46,0,0,1,147.3,35.742ZM104.271,389.7l-33.709,1.746c-.585-20.3-2.691-95.414-2.691-124.068,0-16.338,1.341-35.469,2.761-55.723,1.437-20.486,2.921-41.671,2.921-60.016,0-54.526,8.033-77.953,13.426-87.536,0,0,26.916,99.766,30.053,124.088-16.394,35.648-9.965,100.616-8.969,109.662-10.207,38.506-15.647,80.014-15.707,80.471A5,5,0,0,0,95.7,383.7c.454.155,3.64,1.239,8.575,2.808V389.7Zm15.971-178.9c3.087,28.931.189,44.8-4,59.336C115.675,252.713,116.085,229.947,120.242,210.8Zm73.373,132.372-6.644,38.1c-.368,1.335-3.866,11.993-20.824,10.025-21.159-2.45-52.419-12.224-63.309-15.772,1.765-12.3,7.62-50.192,17.115-83.179l39.138-3.094a5,5,0,0,0-.789-9.969l-35.238,2.786c.018-.055,24-39.168-8.041-149.995L95.359,56.611l38.109-14.648a27.724,27.724,0,0,0-1.049,8.975,5,5,0,0,0,3.965,4.617l7.109,1.494-8.973,6.357a5,5,0,0,0-2,5.12c1.018,4.786,25.182,116.708,65.041,160.06.586,3.825,1.061,7.721,1.439,11.652a14.642,14.642,0,1,0,1.2,22.091C200.888,303.641,193.722,342.6,193.615,343.174Zm1.076-91.374a4.644,4.644,0,1,1-4.645-4.645A4.651,4.651,0,0,1,194.691,251.8Zm6.184-57.945c-3.017-14.757-19.5-95.711-23.915-117.277C173.4,59.164,171.6,46.232,170.9,36.627h59.941c-.7,9.6-2.495,22.537-6.057,39.951C220.418,97.945,203.925,178.94,200.875,193.855Zm34.544,197.471c-17.629,2.713-20.361-8.6-20.607-9.855l-6.689-38.359c-.01-.054-.993-5.341-2.188-13.929,3.133-22.815,7.392-66.295,1.222-103.976,38.094-45.506,61.1-152.1,62.073-156.68a5,5,0,0,0-2-5.12l-8.973-6.357,7.109-1.494a5,5,0,0,0,3.965-4.618,27.72,27.72,0,0,0-1.05-8.974l38.11,14.648-19.674,75.5c-31.638,108.35-8.049,149.9-8.032,149.958l-35.238-2.785a5,5,0,1,0-.787,9.969l39.137,3.094c9.474,32.911,15.324,70.706,17.1,83.1C287.86,378.816,256.537,388.08,235.419,391.326ZM281.507,210.8c4.151,19.136,4.563,41.9,4,59.326C281.318,255.589,278.421,239.721,281.507,210.8Zm49.682,180.647L297.48,389.7v-3.37c4.872-1.461,8.018-2.455,8.469-2.6a5,5,0,0,0,3.447-5.408c-.059-.457-5.5-41.966-15.707-80.473,1-9.051,7.425-74.017-8.97-109.662C296.554,127.968,314.773,64.1,314.773,64.1c5.392,9.585,13.424,33.013,13.424,87.535,0,18.345,1.485,39.529,2.921,60.016,1.42,20.254,2.761,39.385,2.761,55.723C333.878,296.031,331.774,371.151,331.189,391.446Z" transform="translate(-57.872)"/></svg>