<svg xmlns="http://www.w3.org/2000/svg" viewBox="0 0 511.998 255.993"><defs><style>.a{fill:rgba(0,0,0,0.8);}</style></defs><g transform="translate(0 -0.499)"><path class="a" d="M366.813,78.555a69.122,69.122,0,0,1-15.871-1.832c-24.855-5.906-43.664-14.363-55.9-25.141a8.534,8.534,0,0,1,4.188-14.812c15.379-2.652,34.414-5.836,53.844-9.086,33.422-5.59,67.992-11.375,87.105-14.941a8.531,8.531,0,0,1,7.73,14.285c-2.629,2.746-5.41,5.828-8.32,9.059-7.937,8.809-16.93,18.781-26.828,26.5a75.215,75.215,0,0,1-45.949,15.973Zm-11.93-18.445c15.992,3.82,33.707-.309,47.391-10.984a147.8,147.8,0,0,0,16.156-15.18c-18.262,3.156-40.637,6.9-62.531,10.563-10.957,1.836-21.777,3.645-31.895,5.352a163.16,163.16,0,0,0,30.879,10.25Zm0,0"/><path class="a" d="M101.723,222.055c-.156,0-.3,0-.445-.008-31.531-1.641-60.652-12.418-84.238-31.164-2.543-2.023-4.836-3.984-6.773-5.844A33.26,33.26,0,0,1,.008,161.992c.258-15.02,5.5-27.309,15.59-36.949,24.176-23.105,68.016-22.16,69.887-22.145H104.3a8.537,8.537,0,0,1,8.211,6.207,180.5,180.5,0,0,1,6.867,49.258,178.957,178.957,0,0,1-9.582,57.914,8.552,8.552,0,0,1-8.078,5.777Zm-17.34-102.1c-5.828,0-39.586.734-57.027,17.457-6.75,6.469-10.109,14.465-10.289,24.441A16.068,16.068,0,0,0,22.059,172.7c1.6,1.527,3.5,3.148,5.6,4.813,19.156,15.23,42.543,24.5,67.98,26.988a161.918,161.918,0,0,0,6.68-46.152,163.28,163.28,0,0,0-4.59-38.4H85.243c-.051.016-.34.008-.859.008Zm0,0"/><path class="a" d="M204.7,145.566a8.507,8.507,0,0,1-6.031-2.5L155.5,99.9A8.532,8.532,0,0,1,167.57,87.832L210.738,131a8.533,8.533,0,0,1-6.035,14.566Zm0,0"/><path class="a" d="M238.836,119.965a8.507,8.507,0,0,1-6.031-2.5L190.641,75.3a8.532,8.532,0,0,1,12.066-12.066l42.16,42.164a8.531,8.531,0,0,1-6.031,14.563Zm0,0"/><path class="a" d="M272.969,94.367a8.516,8.516,0,0,1-6.035-2.5L225.586,50.516a8.529,8.529,0,0,1,12.063-12.062L279,79.8a8.533,8.533,0,0,1-6.031,14.566Zm0,0"/><path class="a" d="M400.961,188.23a51.2,51.2,0,1,1,51.2-51.2A51.255,51.255,0,0,1,400.961,188.23Zm0-85.332a34.133,34.133,0,1,0,34.133,34.133A34.167,34.167,0,0,0,400.961,102.9Zm0,0"/><path class="a" d="M460.992,222.359H109.367c-34,0-66.781-11.176-92.309-31.477-2.543-2.023-4.812-3.984-6.75-5.844A33,33,0,0,1,.18,164.363,8.191,8.191,0,0,1,0,162.628v-1.758a8.048,8.048,0,0,1,.059-1.023c.605-13.684,5.711-25.289,15.2-34.523,24.1-23.43,68.355-22.492,70.227-22.426h40.469a24.621,24.621,0,0,0,14.191-4.469l76.293-53.4c16.629-14.969,38.969-18.926,54.84-19.6a47.711,47.711,0,0,1,34.148,12.594c7.125,6.418,21.5,15.461,49.457,22.1,15.992,3.824,33.707-.309,47.391-10.98,8.715-6.793,17.18-16.187,24.637-24.473C437.039,13.433,445.043,4.55,453.183,1.949a29.472,29.472,0,0,1,31.563,8.813c28.715,33.738,27.3,90.047,27.219,92.43v76.531c0,10.539-4.648,19.984-14.207,28.875-9.566,8.867-22.621,13.762-36.766,13.762ZM17.082,161.531A16.2,16.2,0,0,0,22.1,172.7c1.6,1.535,3.473,3.148,5.578,4.82,22.527,17.91,51.539,27.766,81.687,27.766H461c9.82,0,18.754-3.273,25.152-9.223,5.973-5.555,8.758-10.75,8.758-16.367V102.9c.016-.773,1.254-52.414-23.16-81.094a12.635,12.635,0,0,0-13.379-3.609c-3.738,1.2-12.082,10.453-18.781,17.891-7.937,8.809-16.93,18.793-26.828,26.5-17.73,13.832-40.848,19.1-61.82,14.133-25.266-6-44.422-14.754-56.93-26.027A31.2,31.2,0,0,0,272,42.468c-13.176.566-31.582,3.715-44.465,15.523a8.976,8.976,0,0,1-.871.7l-76.734,53.715a41.6,41.6,0,0,1-23.98,7.559H85.242c-.621-.016-39.234-.785-58.117,17.629-6.527,6.359-9.82,14.2-10.043,23.938Zm0,0"/><path class="a" d="M460.992,256.492H109.367c-34,0-66.781-11.176-92.309-31.477-2.543-2.023-4.812-3.984-6.75-5.848A33.074,33.074,0,0,1,0,195V162.535A8.529,8.529,0,0,1,8.371,154.1a8.434,8.434,0,0,1,8.687,8.113c.074-.066.18.418.289,1.145.016.137.109.871.121,1.008a13.6,13.6,0,0,0,.793,2.523c.094.242.281.82.355,1.059a15.969,15.969,0,0,0,3.441,4.762c1.621,1.555,3.539,3.184,5.664,4.875a125.38,125.38,0,0,0,24.637,15.1l1.723.844c.59.3,1.176.6,1.773.863l2.059.785a134.3,134.3,0,0,0,51.445,10.137H460.992c9.82,0,18.754-3.277,25.152-9.223,5.98-5.574,8.766-10.777,8.766-16.395a8.531,8.531,0,0,1,17.063,0v34.133c0,10.547-4.648,19.992-14.215,28.875s-22.621,13.789-36.766,13.789ZM17.066,190.91V195A16.16,16.16,0,0,0,22.1,206.832c1.6,1.535,3.48,3.148,5.578,4.82,22.52,17.91,51.531,27.766,81.688,27.766H461c9.82,0,18.754-3.277,25.152-9.223,5.973-5.547,8.758-10.754,8.758-16.367v-2.809a54.22,54.22,0,0,1-33.918,11.34H109.426A151.208,151.208,0,0,1,51.41,210.933c-1.246-.457-1.781-.664-2.3-.887-.937-.41-1.816-.844-2.687-1.277l-1.3-.648a142.227,142.227,0,0,1-28-17.18c-.027-.008-.035-.023-.051-.031Zm0,0"/></g></svg>