<svg xmlns="http://www.w3.org/2000/svg" viewBox="0 0 511.999 504.875"><defs><style>.a{fill:rgba(0,0,0,0.8);}</style></defs><g transform="translate(0 -3.563)"><path class="a" d="M501.961,79.6H392.25L370.166,10.653l-.027-.085-.009-.028c-.007-.021-.017-.04-.023-.06a9.978,9.978,0,0,0-.372-.963c-.042-.093-.088-.184-.133-.276q-.172-.36-.373-.7c-.061-.1-.123-.208-.189-.31-.136-.215-.282-.422-.434-.624-.069-.092-.136-.188-.208-.278-.2-.248-.41-.485-.63-.713-.031-.032-.058-.067-.09-.1a10.379,10.379,0,0,0-.8-.721c-.08-.065-.166-.122-.248-.186-.211-.161-.427-.314-.65-.457-.1-.063-.2-.122-.3-.182q-.34-.2-.7-.376c-.1-.046-.189-.094-.286-.138-.282-.127-.572-.241-.867-.342-.045-.016-.088-.038-.135-.053l-.037-.01a9.809,9.809,0,0,0-1.112-.291c-.032-.006-.063-.008-.1-.015q-.488-.092-.99-.137c-.129-.011-.258-.013-.387-.019-.167-.008-.33-.025-.5-.025H151.432c-.169,0-.332.017-.5.025-.13.006-.257.008-.387.019a9.527,9.527,0,0,0-.993.138c-.031.006-.062.008-.092.014a9.984,9.984,0,0,0-1.113.291l-.037.01c-.046.015-.088.037-.135.053-.295.1-.585.215-.867.342-.1.044-.191.091-.286.138-.238.116-.471.242-.7.376-.1.059-.2.118-.3.182-.224.144-.439.3-.651.457-.082.062-.168.12-.248.186a10.211,10.211,0,0,0-.806.721c-.031.032-.059.067-.09.1-.221.228-.432.465-.63.713-.072.09-.139.185-.208.278q-.228.3-.434.624c-.065.1-.128.2-.189.31-.135.229-.257.463-.373.7-.044.092-.091.182-.133.276a9.631,9.631,0,0,0-.372.963c-.007.021-.017.039-.023.06l-.009.028-.027.085L119.749,79.6H10.039A10.04,10.04,0,0,0,0,89.639V498.4a10.04,10.04,0,0,0,10.039,10.039H217.515l.061,0c.013,0,.026,0,.04,0H501.96A10.04,10.04,0,0,0,512,498.4V89.64A10.039,10.039,0,0,0,501.961,79.6ZM373.01,85.358l-72.059,52.4L269.78,92.033l85.463-62.144ZM228.127,178.714l-20.465,81.248-57.9-141.415L206.5,159.808ZM226.136,150.3l29.791-42.946,29.363,43.073-16.1,14.735H243.134Zm21.053,34.941h18.044l26.3,106.024-35.524,86.777-35.524-86.772Zm37.078-6.662,20.592-18.842,57.686-41.947L304.412,259.8Zm45.426-154.94L256,77.227,182.308,23.642H329.693ZM156.757,29.888l85.4,62.1L210.374,137.8,138.852,85.79ZM20.078,488.358V99.679H71.154L47.707,221.229a10.041,10.041,0,0,0,7.973,11.763l33.777,6.453L65.662,258.923a10.04,10.04,0,0,0-2.1,13.181L202.008,488.357H20.078ZM216.7,474.064,85.292,268.8l33.5-27.42a10.039,10.039,0,0,0-4.476-17.629l-44.986-8.6L91.6,99.679h28.735l80.31,196.145,44.508,108.719Zm69.45,14.294H232.539L391.659,99.68H420.4l22.276,115.478-44.986,8.6a10.039,10.039,0,0,0-4.475,17.629l33.495,27.42Zm205.776,0H309.987L448.434,272.1a10.04,10.04,0,0,0-2.1-13.182l-23.794-19.478,33.776-6.453a10.04,10.04,0,0,0,7.974-11.763L440.846,99.679h51.076Z"/><path class="a" d="M464.816,355.05c-12.919,0-12.941,20.078,0,20.078C477.735,375.128,477.756,355.05,464.816,355.05Z"/><path class="a" d="M464.816,387.175a10.04,10.04,0,0,0-10.039,10.039v61.909a10.039,10.039,0,1,0,20.078,0V397.214A10.04,10.04,0,0,0,464.816,387.175Z"/></g></svg>