<svg xmlns="http://www.w3.org/2000/svg" viewBox="0 0 615.645 441.609"><defs><style>.a{fill:#6058e4;}.a,.b,.m,.o{opacity:0.1;}.b,.c,.d,.e,.f{fill:#6c63ff;}.c{opacity:0.2;}.e{opacity:0.7;}.f{opacity:0.4;}.g{fill:#767d9f;}.h{fill:#ae6e79;}.i{fill:#4c4981;}.j{fill:#504f60;}.k{fill:#9c9ca1;}.l{opacity:0.05;}.n{fill:#fff;}.o{stroke:#4c4981;stroke-miterlimit:10;}.p{fill:#444053;}</style></defs><g transform="translate(-750.553 -80)"><path class="a" d="M-2701.136-2399s-90.78,24.632-113.786,78.612,20.281,75.606,45.232,129.664c10.06,21.8-22.211,63.869-30.154,93.479-8.84,32.954-5.191,96.549,53.822,121.143s106.649,28.355,199.474-9.573c46.272-18.907,166.984,19.4,217.115,9.573,101.487-19.893,123.631-75.913,123.631-75.913V-2399Z" transform="translate(3572 2479)"/><g transform="translate(853.002 108.224)"><path class="b" d="M496,338.283a108.685,108.685,0,0,1-2.8,24.651,100.333,100.333,0,0,1-7.883,22.007c0,24.9-13.835,46.419-33.918,56.657a58.092,58.092,0,0,1-26.48,6.361H116.842A74.41,74.41,0,0,1,72.6,433.367a78.428,78.428,0,0,1-10.158-8.891A81.841,81.841,0,0,1,39.912,367.72,104.152,104.152,0,0,1,28,318.657c0-36.459,17.75-67.809,43.179-81.651a63.607,63.607,0,0,1,10.436-4.533q1.894-.626,3.829-1.123a59.873,59.873,0,0,1,10.436-1.74q1.9-.144,3.825-.164h.7c1.415,0,2.819.06,4.214.159l.458-.944q.843-1.71,1.726-3.385,1.6-3.052,3.346-6.014,1.833-3.126,3.825-6.153l.34-.5q1.129-1.71,2.307-3.38,3.682-5.213,7.773-10.114c29.5-35.127,75.714-57.74,127.669-57.74,40.426,0,77.379,13.692,105.684,36.315a61.762,61.762,0,0,1,35.157-11.227c39.984,0,72.409,39.943,72.409,89.215q-.009,4.676-.409,9.334C484.467,281.838,496.065,309.17,496,338.283Z" transform="translate(-28 -141.34)"/><path class="c" d="M252.433,257.52v10.114H244.66Q248.313,262.425,252.433,257.52Z" transform="translate(-156.027 -199.759)"/><rect class="c" width="10.436" height="12.678" transform="translate(100.235 55.196)"/><rect class="c" width="10.436" height="12.678" transform="translate(114.496 55.196)"/><rect class="c" width="10.436" height="12.678" transform="translate(128.761 55.196)"/><rect class="c" width="10.436" height="12.678" transform="translate(143.021 55.196)"/><rect class="c" width="10.436" height="12.678" transform="translate(157.286 55.196)"/><rect class="d" width="10.436" height="12.678" transform="translate(171.551 55.196)"/><rect class="c" width="10.436" height="12.678" transform="translate(185.812 55.196)"/><rect class="c" width="10.436" height="12.678" transform="translate(200.077 55.196)"/><rect class="c" width="10.436" height="12.678" transform="translate(214.338 55.196)"/><rect class="d" width="10.436" height="12.678" transform="translate(228.603 55.196)"/><rect class="c" width="10.436" height="12.678" transform="translate(242.868 55.196)"/><rect class="c" width="10.436" height="12.678" transform="translate(257.129 55.196)"/><rect class="c" width="10.436" height="12.678" transform="translate(271.394 55.196)"/><rect class="c" width="10.436" height="12.678" transform="translate(285.659 55.196)"/><rect class="c" width="10.436" height="12.678" transform="translate(299.919 55.196)"/><rect class="c" width="10.436" height="12.678" transform="translate(314.184 55.196)"/><rect class="d" width="10.436" height="12.678" transform="translate(328.445 55.196)"/><rect class="d" width="10.436" height="12.678" transform="translate(342.71 55.196)"/><rect class="c" width="10.436" height="12.678" transform="translate(356.975 55.196)"/><rect class="c" width="10.436" height="12.678" transform="translate(371.236 55.196)"/><rect class="d" width="10.436" height="12.678" transform="translate(385.501 55.196)"/><rect class="d" width="10.436" height="12.678" transform="translate(399.762 55.196)"/><path class="d" d="M223.966,298.08v6.014H220.62Q222.215,301.022,223.966,298.08Z" transform="translate(-141.822 -220.161)"/><rect class="c" width="10.436" height="12.678" transform="translate(85.97 71.254)"/><rect class="d" width="10.436" height="12.678" transform="translate(100.235 71.254)"/><rect class="c" width="10.436" height="12.678" transform="translate(114.496 71.254)"/><rect class="e" width="10.436" height="12.678" transform="translate(128.761 71.254)"/><rect class="c" width="10.436" height="12.678" transform="translate(143.021 71.254)"/><rect class="f" width="10.436" height="12.678" transform="translate(157.286 71.254)"/><rect class="d" width="10.436" height="12.678" transform="translate(171.551 71.254)"/><rect class="f" width="10.436" height="12.678" transform="translate(185.812 71.254)"/><rect class="c" width="10.436" height="12.678" transform="translate(200.077 71.254)"/><rect class="f" width="10.436" height="12.678" transform="translate(214.338 71.254)"/><rect class="d" width="10.436" height="12.678" transform="translate(228.603 71.254)"/><rect class="f" width="10.436" height="12.678" transform="translate(242.868 71.254)"/><rect class="f" width="10.436" height="12.678" transform="translate(257.129 71.254)"/><rect class="c" width="10.436" height="12.678" transform="translate(271.394 71.254)"/><rect class="f" width="10.436" height="12.678" transform="translate(285.659 71.254)"/><rect class="f" width="10.436" height="12.678" transform="translate(299.919 71.254)"/><rect class="c" width="10.436" height="12.678" transform="translate(314.184 71.254)"/><rect class="c" width="10.436" height="12.678" transform="translate(328.445 71.254)"/><rect class="f" width="10.436" height="12.678" transform="translate(342.71 71.254)"/><rect class="c" width="10.436" height="12.678" transform="translate(356.975 71.254)"/><rect class="d" width="10.436" height="12.678" transform="translate(371.236 71.254)"/><rect class="d" width="10.436" height="12.678" transform="translate(385.501 71.254)"/><rect class="d" width="10.436" height="12.678" transform="translate(399.762 71.254)"/><path class="c" d="M143.986,324.67v8.861H133.55V329.2a63.612,63.612,0,0,1,10.436-4.533Z" transform="translate(-90.371 -233.536)"/><path class="c" d="M150.856,177.57v11.724H140.42v-9.985Z" transform="translate(-82.976 -89.299)"/><rect class="d" width="10.436" height="12.678" transform="translate(71.705 87.317)"/><rect class="e" width="10.436" height="12.678" transform="translate(85.97 87.317)"/><rect class="d" width="10.436" height="12.678" transform="translate(100.235 87.317)"/><rect class="e" width="10.436" height="12.678" transform="translate(114.496 87.317)"/><rect class="e" width="10.436" height="12.678" transform="translate(128.761 87.317)"/><rect class="c" width="10.436" height="12.678" transform="translate(143.021 87.317)"/><rect class="f" width="10.436" height="12.678" transform="translate(157.286 87.317)"/><rect class="f" width="10.436" height="12.678" transform="translate(171.551 87.317)"/><rect class="d" width="10.436" height="12.678" transform="translate(185.812 87.317)"/><rect class="c" width="10.436" height="12.678" transform="translate(200.077 87.317)"/><rect class="f" width="10.436" height="12.678" transform="translate(214.338 87.317)"/><rect class="d" width="10.436" height="12.678" transform="translate(228.603 87.317)"/><rect class="c" width="10.436" height="12.678" transform="translate(242.868 87.317)"/><rect class="f" width="10.436" height="12.678" transform="translate(257.129 87.317)"/><rect class="c" width="10.436" height="12.678" transform="translate(271.394 87.317)"/><rect class="d" width="10.436" height="12.678" transform="translate(285.659 87.317)"/><rect class="c" width="10.436" height="12.678" transform="translate(299.919 87.317)"/><rect class="e" width="10.436" height="12.678" transform="translate(314.184 87.317)"/><rect class="e" width="10.436" height="12.678" transform="translate(328.445 87.317)"/><rect class="f" width="10.436" height="12.678" transform="translate(342.71 87.317)"/><rect class="c" width="10.436" height="12.678" transform="translate(356.975 87.317)"/><rect class="d" width="10.436" height="12.678" transform="translate(371.236 87.317)"/><rect class="d" width="10.436" height="12.678" transform="translate(385.501 87.317)"/><rect class="d" width="10.436" height="12.678" transform="translate(399.762 87.317)"/><rect class="c" width="10.436" height="12.678" transform="translate(43.179 103.374)"/><rect class="c" width="10.436" height="12.678" transform="translate(57.444 103.374)"/><rect class="c" width="10.436" height="12.678" transform="translate(71.705 103.374)"/><rect class="c" width="10.436" height="12.678" transform="translate(85.97 103.374)"/><rect class="d" width="10.436" height="12.678" transform="translate(100.235 103.374)"/><rect class="e" width="10.436" height="12.678" transform="translate(114.496 103.374)"/><rect class="e" width="10.436" height="12.678" transform="translate(128.761 103.374)"/><rect class="c" width="10.436" height="12.678" transform="translate(143.021 103.374)"/><rect class="c" width="10.436" height="12.678" transform="translate(157.286 103.374)"/><rect class="f" width="10.436" height="12.678" transform="translate(171.551 103.374)"/><rect class="f" width="10.436" height="12.678" transform="translate(185.812 103.374)"/><rect class="d" width="10.436" height="12.678" transform="translate(200.077 103.374)"/><rect class="c" width="10.436" height="12.678" transform="translate(214.338 103.374)"/><rect class="f" width="10.436" height="12.678" transform="translate(228.603 103.374)"/><rect class="f" width="10.436" height="12.678" transform="translate(242.868 103.374)"/><rect class="f" width="10.436" height="12.678" transform="translate(257.129 103.374)"/><rect class="f" width="10.436" height="12.678" transform="translate(271.394 103.374)"/><rect class="c" width="10.436" height="12.678" transform="translate(285.659 103.374)"/><rect class="c" width="10.436" height="12.678" transform="translate(299.919 103.374)"/><rect class="c" width="10.436" height="12.678" transform="translate(314.184 103.374)"/><rect class="c" width="10.436" height="12.678" transform="translate(328.445 103.374)"/><rect class="e" width="10.436" height="12.678" transform="translate(342.71 103.374)"/><rect class="e" width="10.436" height="12.678" transform="translate(356.975 103.374)"/><rect class="f" width="10.436" height="12.678" transform="translate(371.236 103.374)"/><rect class="c" width="10.436" height="12.678" transform="translate(385.501 103.374)"/><rect class="d" width="10.436" height="12.678" transform="translate(399.762 103.374)"/><rect class="c" width="10.436" height="12.678" transform="translate(43.179 119.437)"/><rect class="c" width="10.436" height="12.678" transform="translate(57.444 119.437)"/><rect class="f" width="10.436" height="12.678" transform="translate(71.705 119.437)"/><rect class="c" width="10.436" height="12.678" transform="translate(85.97 119.437)"/><rect class="c" width="10.436" height="12.678" transform="translate(100.235 119.437)"/><rect class="e" width="10.436" height="12.678" transform="translate(114.496 119.437)"/><rect class="e" width="10.436" height="12.678" transform="translate(128.761 119.437)"/><rect class="c" width="10.436" height="12.678" transform="translate(143.021 119.437)"/><rect class="c" width="10.436" height="12.678" transform="translate(157.286 119.437)"/><rect class="f" width="10.436" height="12.678" transform="translate(171.551 119.437)"/><rect class="d" width="10.436" height="12.678" transform="translate(185.812 119.437)"/><rect class="c" width="10.436" height="12.678" transform="translate(200.077 119.437)"/><rect class="d" width="10.436" height="12.678" transform="translate(214.338 119.437)"/><rect class="d" width="10.436" height="12.678" transform="translate(228.603 119.437)"/><rect class="d" width="10.436" height="12.678" transform="translate(242.868 119.437)"/><rect class="c" width="10.436" height="12.678" transform="translate(257.129 119.437)"/><rect class="d" width="10.436" height="12.678" transform="translate(271.394 119.437)"/><rect class="c" width="10.436" height="12.678" transform="translate(285.659 119.437)"/><rect class="c" width="10.436" height="12.678" transform="translate(299.919 119.437)"/><rect class="c" width="10.436" height="12.678" transform="translate(314.184 119.437)"/><rect class="c" width="10.436" height="12.678" transform="translate(328.445 119.437)"/><rect class="c" width="10.436" height="12.678" transform="translate(342.71 119.437)"/><rect class="e" width="10.436" height="12.678" transform="translate(356.975 119.437)"/><rect class="c" width="10.436" height="12.678" transform="translate(371.236 119.437)"/><rect class="c" width="10.436" height="12.678" transform="translate(385.501 119.437)"/><rect class="d" width="10.436" height="12.678" transform="translate(399.762 119.437)"/><rect class="c" width="10.436" height="12.678" transform="translate(43.179 135.495)"/><rect class="c" width="10.436" height="12.678" transform="translate(57.444 135.495)"/><rect class="c" width="10.436" height="12.678" transform="translate(71.705 135.495)"/><rect class="f" width="10.436" height="12.678" transform="translate(85.97 135.495)"/><rect class="c" width="10.436" height="12.678" transform="translate(100.235 135.495)"/><rect class="c" width="10.436" height="12.678" transform="translate(114.496 135.495)"/><rect class="e" width="10.436" height="12.678" transform="translate(128.761 135.495)"/><rect class="c" width="10.436" height="12.678" transform="translate(143.021 135.495)"/><rect class="c" width="10.436" height="12.678" transform="translate(157.286 135.495)"/><rect class="c" width="10.436" height="12.678" transform="translate(171.551 135.495)"/><rect class="d" width="10.436" height="12.678" transform="translate(185.812 135.495)"/><rect class="c" width="10.436" height="12.678" transform="translate(200.077 135.495)"/><rect class="d" width="10.436" height="12.678" transform="translate(214.338 135.495)"/><rect class="d" width="10.436" height="12.678" transform="translate(228.603 135.495)"/><rect class="c" width="10.436" height="12.678" transform="translate(242.868 135.495)"/><rect class="c" width="10.436" height="12.678" transform="translate(257.129 135.495)"/><rect class="c" width="10.436" height="12.678" transform="translate(271.394 135.495)"/><rect class="c" width="10.436" height="12.678" transform="translate(285.659 135.495)"/><rect class="c" width="10.436" height="12.678" transform="translate(299.919 135.495)"/><rect class="c" width="10.436" height="12.678" transform="translate(314.184 135.495)"/><rect class="c" width="10.436" height="12.678" transform="translate(328.445 135.495)"/><rect class="c" width="10.436" height="12.678" transform="translate(342.71 135.495)"/><rect class="c" width="10.436" height="12.678" transform="translate(356.975 135.495)"/><rect class="c" width="10.436" height="12.678" transform="translate(371.236 135.495)"/><rect class="f" width="10.436" height="12.678" transform="translate(385.501 135.495)"/><rect class="d" width="10.436" height="12.678" transform="translate(399.762 135.495)"/><rect class="e" width="10.436" height="12.678" transform="translate(43.179 151.558)"/><rect class="e" width="10.436" height="12.678" transform="translate(57.444 151.558)"/><rect class="e" width="10.436" height="12.678" transform="translate(71.705 151.558)"/><rect class="e" width="10.436" height="12.678" transform="translate(85.97 151.558)"/><rect class="e" width="10.436" height="12.678" transform="translate(100.235 151.558)"/><rect class="c" width="10.436" height="12.678" transform="translate(114.496 151.558)"/><rect class="c" width="10.436" height="12.678" transform="translate(128.761 151.558)"/><rect class="c" width="10.436" height="12.678" transform="translate(143.021 151.558)"/><rect class="c" width="10.436" height="12.678" transform="translate(157.286 151.558)"/><rect class="c" width="10.436" height="12.678" transform="translate(171.551 151.558)"/><rect class="c" width="10.436" height="12.678" transform="translate(185.812 151.558)"/><rect class="d" width="10.436" height="12.678" transform="translate(200.077 151.558)"/><rect class="c" width="10.436" height="12.678" transform="translate(214.338 151.558)"/><rect class="c" width="10.436" height="12.678" transform="translate(228.603 151.558)"/><rect class="c" width="10.436" height="12.678" transform="translate(242.868 151.558)"/><rect class="d" width="10.436" height="12.678" transform="translate(257.129 151.558)"/><rect class="c" width="10.436" height="12.678" transform="translate(271.394 151.558)"/><rect class="c" width="10.436" height="12.678" transform="translate(285.659 151.558)"/><rect class="c" width="10.436" height="12.678" transform="translate(299.919 151.558)"/><rect class="c" width="10.436" height="12.678" transform="translate(314.184 151.558)"/><rect class="c" width="10.436" height="12.678" transform="translate(328.445 151.558)"/><rect class="c" width="10.436" height="12.678" transform="translate(342.71 151.558)"/><rect class="c" width="10.436" height="12.678" transform="translate(356.975 151.558)"/><rect class="c" width="10.436" height="12.678" transform="translate(371.236 151.558)"/><rect class="c" width="10.436" height="12.678" transform="translate(385.501 151.558)"/><rect class="d" width="10.436" height="12.678" transform="translate(399.762 151.558)"/><ellipse class="g" cx="14.265" cy="17.33" rx="14.265" ry="17.33" transform="translate(286.219 163.54)"/><path class="h" d="M760.182,447.44q2.135,11.321,3.625,22.812a16.052,16.052,0,0,1-.115,6.829,24.464,24.464,0,0,1-2.635,4.766,7.059,7.059,0,0,0-1.043,5.382,5.348,5.348,0,0,0,3.7,3.29c4.4,1.441,9.094.393,13.475-1.168a19.879,19.879,0,0,0,5.65-2.843,23.546,23.546,0,0,0,4.778-5.467c6.386-9.408,10.567-20.7,14.5-31.922-5.13.567-10.171-1.9-13.545-6.63-1.612-2.3-2.794-5.507-1.886-8.32-2.663,1.774-5.825,1.893-8.693,3.106a29.048,29.048,0,0,0-5.114,3.056q-2.937,2.063-5.842,4.2C764.829,446.158,762.755,447.6,760.182,447.44Z" transform="translate(-460.439 -288.616)"/><path class="g" d="M744.832,470.861c-2.5,5.909-5.752,11.59-10.395,15.109s-10.894,4.473-15.545.994c-2.291-1.7-4.026-4.284-6.026-6.461s-4.5-4.041-7.188-3.757c-2.962.313-5.281,3.121-7.266,5.81a69.845,69.845,0,0,0-8.051,13.18c-4.091,9.294-5.06,20.158-4.88,30.694s1.436,21.018,1.465,31.554c.041,12.961-1.767,25.819-3.6,38.586,16.814-2.515,33.648,2.982,50.5,5.064,10.784,1.347,21.649,1.317,32.49,1.282,1.906,0,3.935-.06,5.523-1.342a8.843,8.843,0,0,0,2.287-3.3,36.946,36.946,0,0,0,2.516-10.964,269.308,269.308,0,0,0,1.121-28.865c.074-23.359.143-46.8-2.3-69.976a78.09,78.09,0,0,0-3.17-16.763c-1.8-5.333-4.737-10.238-8.844-13.1-2.639-1.839-8.755-5.039-11.864-3.186C748.117,457.492,746.505,466.905,744.832,470.861Z" transform="translate(-415.254 -299.026)"/><path class="i" d="M831.526,532.686c-.634-14.413-3.215-29.795,2.279-42.587,1.35-3.141-3.494-7.062-2-10.1a51.539,51.539,0,0,0,4.115-11.893,10.817,10.817,0,0,0,.266-4.4c-.544-2.629-2.684-4.195-4.5-5.795-2-1.769-3.035-7.162-3.682-10.079s5.142.6,7.47-.442c3.232-1.436,7.339-.532,10.563.924a14.743,14.743,0,0,0,5.674.934,61.583,61.583,0,0,0,11.164-.323,23,23,0,0,1,4.995-.522c4.259.293,7.961,3.832,10.481,8.016s4.124,9.06,6.19,13.593c1.722,3.777,3.776,7.346,5.245,11.277a80.388,80.388,0,0,1,2.937,10.934l2.1,9.537a15.253,15.253,0,0,1,.515,4.229,13.8,13.8,0,0,1-1.227,4.3,85,85,0,0,1-7.638,14.159c-4.414,6.575-9.773,12.5-12.4,20.377a60.469,60.469,0,0,0-2.111,9.577q-3.142,19.5-4.459,39.337a62.988,62.988,0,0,0-14.94-6.068,60.858,60.858,0,0,0-7.773-1.491c-2.287-.288-5.236.258-7.413-.5-3.641-1.257-4.042-8.737-4.594-12.653a139.979,139.979,0,0,1-1.092-18.886C831.657,546.979,831.841,539.827,831.526,532.686Z" transform="translate(-500.704 -294.89)"/><path class="i" d="M590.209,558.749c1.722,11.928,3.62,23.89,7.364,35.1-.094.109-.188.209-.282.308-.331.343-.675.666-1.035.994a14.415,14.415,0,0,0-2.455,2.256,4.2,4.2,0,0,0-.614,1.218,3.262,3.262,0,0,0,0,2.222c-1.951,1.049-4.218.726-6.406.626-1.886-.084-3.715,0-5.228,1.258-2.1,1.759-2.737,5.139-3.076,8.21q-.188,1.68-.323,3.365-.131,1.565-.213,3.141-.278,5.212-.078,10.437.033.954.086,1.908c-6.685-.194-12.776-4.428-18.54-8.543a10.917,10.917,0,0,1-3.53-3.479,9.238,9.238,0,0,1-.945-5.114A6.824,6.824,0,0,1,555,611.9a24.3,24.3,0,0,1,.937-4.314,56.759,56.759,0,0,1,7.85-16.227c1.465-2.077,3.113-4.11,3.8-6.719.3-1.138.409-2.346.712-3.479,1.358-4.91,6.259-7.231,7.936-12,.409-1.138.6-2.386,1.1-3.479a8.432,8.432,0,0,1,1.739-2.361c.3-.3.61-.6.916-.89q4.312-4.105,8.309-8.673.745-.85,1.473-1.72A35.769,35.769,0,0,0,590.209,558.749Z" transform="translate(-339.344 -347.905)"/><path class="i" d="M681.851,483.6c-.589.755-1.227,1.466-1.853,2.172l-.168.184-.663.745a18.869,18.869,0,0,0-3.089,4.369l-.069.139c-2.086,4.538-1.313,10.124-.732,15.277a157.564,157.564,0,0,1,.97,19.383c-.106,8.946-.974,17.832-.99,26.768q0,3.042.11,6.078c.119,3.295.323,6.585.569,9.875.266,3.608.585,7.211.884,10.815.237,2.788.462,5.571.651,8.354.094,1.441.184,2.878.258,4.319.086,1.69.156,3.385.2,5.074h0c.029,1.074.045,2.142.045,3.216v1.824q0,1.744-.078,3.479-.082,2.232-.25,4.473c-.127,1.625-.352,3.4-1.293,4.542-.057.07-.119.134-.18.2l-1.325-.2a112.2,112.2,0,0,0-27.532-.6c.2-1.68.385-3.355.565-5.039.082-.8.164-1.6.241-2.4q.135-1.372.258-2.743.141-1.491.262-2.982.319-3.842.56-7.688.356-5.611.54-11.242.09-2.689.139-5.382.07-3.34.065-6.684,0-3.25-.045-6.511c0-.716-.025-1.431-.074-2.142a16.36,16.36,0,0,0-.217-1.9,28.492,28.492,0,0,0-1.227-4.214c-.09-.258-.176-.5-.262-.77-.049-.134-.094-.273-.139-.408,2.356-2.55,4.034-5.964,5.645-9.324,2.614-5.412,5.289-11.063,5.727-17.315s-2.119-13.275-7.036-15.183a28.81,28.81,0,0,0-4.132-.929,15.875,15.875,0,0,1-5.519-2.043q-1.227,1.531-2.454,3.007a12.956,12.956,0,0,1,.888-4.329l.581.035a1.615,1.615,0,0,1-.065-.5,2.744,2.744,0,0,1,.949-1.8c1.927-1.988,4.958-2.43,6.173-5.119.507-1.118.593-2.45,1-3.623,1.174-3.345,4.545-4.577,6.574-7.251s2.536-6.461,4.177-9.443a12.589,12.589,0,0,1,4.909-4.97c.164-.094.331-.189.5-.273,3.4-1.764,7.429-2.167,10.947-2.157,1.366,0,4.909.05,6.644.89a2.153,2.153,0,0,1,.757.562C686.094,476.666,683.218,481.83,681.851,483.6Z" transform="translate(-389.762 -308.032)"/><path class="i" d="M631.658,541.39a21.025,21.025,0,0,1,19.121,2.42,20.2,20.2,0,0,1,7.208,8.339c2.434,5.368,2.328,11.838,2.156,17.966-.086,3.066-.2,6.242-1.309,9a16.814,16.814,0,0,1-6.2,7.162,15.879,15.879,0,0,1-5.04,2.649c-2.749.726-5.6.109-8.374-.5-3.011-.676-6.243-1.491-8.333-4.214a18.643,18.643,0,0,1-2.561-5.641q-1.428-4.349-2.864-8.687c-1.657-5.025-2.217-9.2-.029-14.1.994-2.231,2.209-4.319,3.191-6.565C629.117,548.075,630.877,541.683,631.658,541.39Z" transform="translate(-380.183 -341.902)"/><path class="j" d="M515.834,685.913v14.86a58.092,58.092,0,0,1-26.48,6.361H379.027c-.057.07-.119.134-.18.2l-1.325-.2H181.269a74.41,74.41,0,0,1-44.239-14.592V669.855l94.385-13.235h.074l54.965,5.656,14.224,1.491,7.388.76,15.292,1.575,7.867.81,11.454,1.183,1.612.164,8.255.85,11.2,1.118,15.75,1.62,26.255,2.709,18.47,1.9,30.33,3.126,5.768.591.622.065.54.055,7.617.785,8.362.865.969.1Z" transform="translate(-92.427 -400.51)"/><path class="k" d="M586.52,548.3,468.236,523.77l-4.586,28.174,54.221,7.887,16.695,2.54,45.924-10.988Z" transform="translate(-273.976 -263.441)"/><path class="k" d="M642.33,726.2l59.261-13.533a1.791,1.791,0,0,1,1.691.529,2.727,2.727,0,0,1,.739,1.922h0a2.407,2.407,0,0,1-1.673,2.45l-57.874,13.165Z" transform="translate(-391.015 -428.679)"/><path class="h" d="M638.551,644.569a13.111,13.111,0,0,0,5.375-1.556c2.045-1.238,3.637-3.37,5.531-4.94a14,14,0,0,1,14.51-1.948c4.774,2,8.759,6.277,11.549,11.386,1.853,3.4,3.244,7.748,1.935,11.505a15.876,15.876,0,0,1-1.685,3.2l-3.412,5.417a13.732,13.732,0,0,1-2.315,3.027,8.771,8.771,0,0,1-4.426,1.869c-4.152.736-8.378.318-12.563.656-7.188.581-14.208,3.394-21.412,3.3a53.905,53.905,0,0,1-12.273-2.082l-17.906-4.473c-3.117-.775-6.64-1.909-8.108-5.343a14.7,14.7,0,0,1-.859-5.074c-.213-4.791,0-10.119,2.733-13.573,2.569-3.24,6.631-4.264,9.7-6.66,3.755-2.937,4.995-1.988,8.955.219A41.507,41.507,0,0,0,638.551,644.569Z" transform="translate(-361.528 -389.608)"/><path class="l" d="M638.551,644.569a13.111,13.111,0,0,0,5.375-1.556c2.045-1.238,3.637-3.37,5.531-4.94a14,14,0,0,1,14.51-1.948c4.774,2,8.759,6.277,11.549,11.386,1.853,3.4,3.244,7.748,1.935,11.505a15.876,15.876,0,0,1-1.685,3.2l-3.412,5.417a13.732,13.732,0,0,1-2.315,3.027,8.771,8.771,0,0,1-4.426,1.869c-4.152.736-8.378.318-12.563.656-7.188.581-14.208,3.394-21.412,3.3a53.905,53.905,0,0,1-12.273-2.082l-17.906-4.473c-3.117-.775-6.64-1.909-8.108-5.343a14.7,14.7,0,0,1-.859-5.074c-.213-4.791,0-10.119,2.733-13.573,2.569-3.24,6.631-4.264,9.7-6.66,3.755-2.937,4.995-1.988,8.955.219A41.507,41.507,0,0,0,638.551,644.569Z" transform="translate(-361.528 -389.608)"/><path class="h" d="M727.932,638.025a93.564,93.564,0,0,1-15.337,6.138c-8.82,2.361-18.049,1.988-26.8,4.687-4.623,1.431-9.217,3.737-13.966,3.27a35.522,35.522,0,0,1-6.239-1.59c-11.606-3.479-24.8-2.351-34.224,6.6a49.467,49.467,0,0,0-8.255,10.934,8.614,8.614,0,0,0-.9,6.129,7.1,7.1,0,0,0,3.317,4.745,30.645,30.645,0,0,0,11.61,3.762c5.371.576,10.767-.348,16.11-1.272,7.928-1.367,15.86-2.738,23.768-4.274,2.839-.552,5.678-1.123,8.534-1.561,20.549-3.156,41.469.681,62.071-1.953a16.211,16.211,0,0,0,6.1-1.695c4.794-2.733,7.167-9.94,6.177-16.272a22.694,22.694,0,0,0-9.409-14.825c-3.854-2.719-8.01-3.817-12.3-4.97C734.2,634.745,731.77,636.236,727.932,638.025Z" transform="translate(-379.004 -389.877)"/><path class="m" d="M911.261,542.988c2.266,3.608,2.749,8.449,2.5,12.966s-1.129,8.986-1.26,13.523c-.18,6.222,1.055,12.425.847,18.627a63.943,63.943,0,0,1-2,12.758c-1.182,4.915-2.892,10.2-6.627,12.559-4.958,3.136-15.357,1.372-20.573,3.827.475-3.593,5.024-8.8,5.5-12.39a28.02,28.02,0,0,0,.307-7.53,17.9,17.9,0,0,0-3.8-8.34c-2.9-3.732-6.676-6.54-10.829-7.455s-14.318-.164-17.64,3.022c-.409-3.29,7.2-6.461,9.875-7.172,1.334-.363,2.864-.159,3.931-1.188,2.045-1.948.56-5.83.659-8.946.078-2.485,1.272-4.761,1.514-7.246.409-3.976-1.726-8.026-.888-11.928a34.647,34.647,0,0,1,1.481-4.08c1.456-4.2.818-8.991.041-13.454-.483-2.8-.953-5.964.331-8.354,1.19-2.232,4.57,5.715,6.734,5.348,7.147-1.218,13.614-7.654,19.387-2.386,2.941,2.684,3.326,5.467,4.5,9.3C906.393,538.1,909.351,539.967,911.261,542.988Z" transform="translate(-518.262 -332.691)"/><path class="i" d="M914.261,539.588c2.266,3.608,2.749,8.449,2.5,12.966s-1.129,8.986-1.26,13.523c-.18,6.222,1.055,12.425.847,18.627a63.942,63.942,0,0,1-2,12.758c-1.182,4.915-2.892,10.2-6.627,12.559-4.958,3.136-15.357,1.372-20.573,3.827.474-3.593,5.024-8.8,5.5-12.39a28.018,28.018,0,0,0,.307-7.53,17.894,17.894,0,0,0-3.8-8.339c-2.9-3.732-6.676-6.54-10.829-7.455s-14.318-.164-17.64,3.022c-.409-3.29,7.2-6.461,9.875-7.172,1.334-.363,2.864-.159,3.931-1.188,2.045-1.948.56-5.83.659-8.946.078-2.485,1.272-4.761,1.514-7.246.409-3.976-1.726-8.026-.888-11.928a34.664,34.664,0,0,1,1.481-4.08c1.456-4.2.818-8.991.041-13.454-.483-2.8-.953-5.964.331-8.354,1.19-2.232,3.518-3.076,5.682-3.449a24.412,24.412,0,0,1,20.454,6.411c2.941,2.684,3.326,5.467,4.5,9.3C909.393,534.7,912.351,536.566,914.261,539.588Z" transform="translate(-520.035 -329.29)"/><path class="k" d="M329.741,500.086l22.242,99.865a5.54,5.54,0,0,0,4.463,4.577l100.112,11.684a4.718,4.718,0,0,0,4.374-2.128,7.248,7.248,0,0,0,1.1-5.565L437.675,488.058c-.6-2.957-2.868-4.955-5.367-4.726l-98.014,8.906a5.017,5.017,0,0,0-3.8,2.623A7.351,7.351,0,0,0,329.741,500.086Z" transform="translate(-206.196 -313.336)"/><ellipse class="n" cx="11.004" cy="13.543" rx="11.004" ry="13.543" transform="translate(310.993 179.151)"/><path class="n" d="M829.4,479.094s2.32,8.379-4.524,11.9L824,492.855l4.287,5.139S833.573,486.28,833,482.12C833,482.12,832.182,477.9,829.4,479.094Z" transform="translate(-498.365 -311.105)"/><ellipse class="d" cx="10.612" cy="12.892" rx="10.612" ry="12.892" transform="translate(312.65 180.453)"/><path class="d" d="M826.665,463l-1.685-3.38-2.454-.422c.524-11.128-1.853-14.443-1.853-14.443l-.552-.065-2.405-.283L813.19,438.7v-1.62a14.405,14.405,0,0,1,11.769,8.886C828.314,453.511,826.665,463,826.665,463Z" transform="translate(-491.978 -290.08)"/><path class="o" d="M820.17,444.281v2.048l-2.405-.283-4.525-5.706S820.24,442.243,820.17,444.281Z" transform="translate(-492.007 -291.72)"/><path class="o" d="M843.7,472.012l-1.685-3.38V455C845.344,462.525,843.7,472.012,843.7,472.012Z" transform="translate(-509.008 -299.094)"/><path class="n" d="M6.22-.549C9.656-.853,11.992,4.5,11.439,11.4S7.652,24.152,4.217,24.456-1.555,19.407-1,12.5,2.785-.246,6.22-.549Z" transform="translate(287.775 179.575) rotate(-30)"/><path class="d" d="M744.368,505.721c2.974,6.257,6.623,10.437,3.8,12.425s-11.045.994-14.02-5.268-.274-14.91,2.549-16.9S741.39,499.448,744.368,505.721Z" transform="translate(-444.506 -319.498)"/><path class="m" d="M742.642,391.749c0,19.994-11.262,39.262-27.72,39.262s-29.8-16.21-29.8-36.206,13.343-36.206,29.8-36.206C731.38,358.62,742.642,371.75,742.642,391.749Z" transform="translate(-416.3 -250.604)"/><ellipse class="h" cx="29.802" cy="36.206" rx="29.802" ry="36.206" transform="translate(268.82 107.022)"/><path class="p" d="M694.313,349.47c3.547,1.585,5.645,6.038,8.828,8.518,4.5,3.479,10.358,2.579,15.5.86,2.864-.949,5.858-2.107,8.677-1.054a2.067,2.067,0,0,0,1.321.229c.614-.214.916-1.039,1.117-1.774,3.485-12.624,1.919-26.922-3.342-38.6a24.8,24.8,0,0,0-5.228-8.016,20.643,20.643,0,0,0-5.94-3.643,50.9,50.9,0,0,0-11.815-3.544,6.06,6.06,0,0,0-2.156-.085,8.268,8.268,0,0,0-2.749,1.416,24.421,24.421,0,0,1-12.215,4.031c-5.727.263-12.273-1.377-16.687,3.086-5.318,5.353-3.993,15.794-7.441,23.06-2.283,4.806-6.685,8.295-7.409,13.767a15.362,15.362,0,0,0,.258,5c1.685,8.419,8.394,14.94,15.545,15.094a5.036,5.036,0,0,0,3.174-.79,8.02,8.02,0,0,0,1.673-1.933C680.105,358.356,685.464,345.514,694.313,349.47Z" transform="translate(-398.309 -222.285)"/><path class="m" d="M729.734,390.94c-.2.735-.5,1.561-1.117,1.774a2.066,2.066,0,0,1-1.321-.229c-2.819-1.054-5.829.1-8.673,1.054-5.142,1.72-11.013,2.639-15.5-.86-3.187-2.485-5.281-6.958-8.832-8.518-8.849-3.976-14.208,8.886-18.9,15.625a8.022,8.022,0,0,1-1.673,1.933,5.036,5.036,0,0,1-3.174.79c-7.126-.154-13.84-6.675-15.545-15.094-.094-.5-.176-.994-.237-1.491a.285.285,0,0,1-.021.129,15.364,15.364,0,0,0,.258,5c1.685,8.419,8.4,14.94,15.545,15.094a5.036,5.036,0,0,0,3.174-.79,8.022,8.022,0,0,0,1.673-1.933c4.7-6.739,10.055-19.581,18.9-15.625,3.551,1.585,5.645,6.038,8.832,8.518,4.5,3.479,10.354,2.579,15.5.86,2.864-.949,5.854-2.107,8.673-1.054a2.067,2.067,0,0,0,1.321.229c.614-.214.916-1.039,1.117-1.774a53.883,53.883,0,0,0,1.833-16.033,52.722,52.722,0,0,1-1.833,12.39Z" transform="translate(-398.291 -260.639)"/></g></g></svg>