<svg xmlns="http://www.w3.org/2000/svg" viewBox="0 0 27.634 25.604"><defs><style>.a{fill:#787878;}</style></defs><g transform="translate(-874.184 -174.396)"><path class="a" d="M215.587,90.795a3.038,3.038,0,0,0-2.29-.947,3.2,3.2,0,0,0-3.274,2.5,2.186,2.186,0,0,0,.552,1.725,3.013,3.013,0,0,0,2.269.93,3.171,3.171,0,0,0,3.294-2.5A2.166,2.166,0,0,0,215.587,90.795Zm-.766,1.555a1.9,1.9,0,0,1-1.977,1.328,1.721,1.721,0,0,1-1.279-.486.853.853,0,0,1-.224-.689,1.918,1.918,0,0,1,1.956-1.329,1.744,1.744,0,0,1,1.3.5A.852.852,0,0,1,214.821,92.35Z" transform="translate(675.51 88.382)"/><path class="a" d="M196.276,207.138c-.166-.111-.554-.371-.241-2.178.008-.039.04-.185.088-.411.111-.516.318-1.476.543-2.546l0-.007a3.573,3.573,0,0,0-.526-2.927,3.137,3.137,0,0,0-2.308-1.181,3.867,3.867,0,0,0-3.4,1.584.821.821,0,0,0-.031.825,1.056,1.056,0,0,0,.35.361c.163.116.545.387.182,2.19-.034.165-.54,2.736-.607,3.1v.007a3.526,3.526,0,0,0,.6,2.912,3.291,3.291,0,0,0,2.511,1.125,3.86,3.86,0,0,0,3.18-1.677.82.82,0,0,0,.009-.826A1.055,1.055,0,0,0,196.276,207.138Zm-.908-5.405c-.224,1.066-.43,2.022-.541,2.536-.075.349-.091.42-.1.449v.007c-.337,1.936,0,2.783.486,3.257a2.608,2.608,0,0,1-.536.36,2.724,2.724,0,0,1-1.336.322,1.811,1.811,0,0,1-1.372-.623,2.3,2.3,0,0,1-.332-1.857c.072-.393.579-2.965.6-3.067v-.007c.387-1.926.069-2.782-.4-3.268a2.607,2.607,0,0,1,.545-.346,2.724,2.724,0,0,1,1.344-.287,1.81,1.81,0,0,1,1.355.659A2.3,2.3,0,0,1,195.367,201.733Z" transform="translate(694.195 -13.816)"/><path class="a" d="M2.828,39.1A11.852,11.852,0,0,1,4.069,22.483,14.408,14.408,0,0,1,13.817,18.8a14.408,14.408,0,0,1,9.748,3.681,11.9,11.9,0,0,1,0,17.919,14.407,14.407,0,0,1-9.748,3.681A14.857,14.857,0,0,1,7.24,42.561l-4.815,1.8a.663.663,0,0,1-.87-.8Zm4.22,2.112a.663.663,0,0,1,.54.033,13.5,13.5,0,0,0,6.23,1.506c6.887,0,12.49-5.075,12.49-11.314s-5.6-11.314-12.49-11.314S1.327,25.2,1.327,31.442A10.55,10.55,0,0,0,4.06,38.5a.663.663,0,0,1,.141.621l-1.01,3.535Z" transform="translate(874.184 155.594)"/></g></svg>