<svg xmlns="http://www.w3.org/2000/svg" viewBox="0 0 612.321 580.956"><defs><style>.a{fill:#1f1f20;}</style></defs><g transform="translate(-3122 237)"><path class="a" d="M187.57,359.458H548.465l63.856-227.934H125.088l-15.62-62.482C101.6,37.8,74.353,15.683,42.987,15.683H0V41.8H42.987c19.494,0,36.489,13,41.738,32.616L153.83,344.837a56.613,56.613,0,0,0-23.618,46.112c0,31.241,26.117,57.358,57.358,57.358H539.343V422.19H187.57c-16.995,0-31.241-14.371-31.241-31.241C156.33,373.829,170.7,359.458,187.57,359.458ZM578.457,156.267l-49.486,177.2H177.2l-45.612-177.2Z" transform="translate(3122 -252.683)"/><path class="a" d="M424.751,487.171a54.734,54.734,0,1,0,0,109.468c31.241,0,54.734-24.743,54.734-54.734A55.04,55.04,0,0,0,424.751,487.171Zm0,84.725c-16.995,0-29.991-14.371-29.991-29.991,0-16.995,14.371-29.991,29.991-29.991,16.995,0,29.991,13,29.991,29.991S440.372,571.9,424.751,571.9Z" transform="translate(3122 -252.683)"/><path class="a" d="M224.06,487.171A54.734,54.734,0,1,0,278.794,541.9,55.041,55.041,0,0,0,224.06,487.171Zm0,84.725c-16.995,0-29.991-14.371-29.991-29.991,0-16.995,14.371-29.991,29.991-29.991s29.991,13,29.991,29.991S239.68,571.9,224.06,571.9Z" transform="translate(3122 -252.683)"/></g></svg>