<svg xmlns="http://www.w3.org/2000/svg" viewBox="0 0 793.51 610.393"><defs><style>.a{fill:#fff;}</style></defs><path class="a" d="M9.156,338.716C3.052,332.612,0,323.456,0,317.352s3.052-15.26,9.156-21.364l42.727-42.727c12.208-12.208,30.52-12.208,42.727,0l3.052,3.052L265.521,436.379a14.751,14.751,0,0,0,21.364,0L695.848,12.156H698.9c12.208-12.208,30.52-12.208,42.727,0l42.727,42.727c12.208,12.208,12.208,30.52,0,42.727h0L296.04,604.237c-6.1,6.1-12.208,9.156-21.364,9.156s-15.26-3.052-21.364-9.156L15.26,347.872l-6.1-9.156Z" transform="translate(0 -3)"/></svg>