<svg xmlns="http://www.w3.org/2000/svg" viewBox="0 0 455.629 512"><defs><style>.a{fill:rgba(0,0,0,0.8);}</style></defs><g transform="translate(0 0)"><path class="a" d="M285.723,72.52c-14.82-11.488-34.848-17.562-57.91-17.562S184.727,61.031,169.9,72.52c-17.191,13.324-26.281,33.34-26.281,57.887,0,37.359,39.949,65.012,63.762,78.168a42.217,42.217,0,0,0,40.863,0C272.059,195.418,312,167.766,312,130.406c0-24.547-9.09-44.562-26.281-57.887Zm-44.73,122.926a27.221,27.221,0,0,1-26.355,0c-48.738-26.93-56.016-52.309-56.016-65.039,0-14.18,4.988-60.449,69.191-60.449S297,116.227,297,130.406c0,12.73-7.277,38.109-56.012,65.039Zm0,0"/><path class="a" d="M215.156,323.762a21.822,21.822,0,1,0-21.82-21.82A21.846,21.846,0,0,0,215.156,323.762Zm0-28.645a6.822,6.822,0,1,1-6.82,6.824A6.83,6.83,0,0,1,215.156,295.117Zm0,0"/><path class="a" d="M215.156,401.035a21.822,21.822,0,1,0-21.82-21.824A21.846,21.846,0,0,0,215.156,401.035Zm0-28.645a6.822,6.822,0,1,1-6.82,6.82A6.827,6.827,0,0,1,215.156,372.391Zm0,0"/><path class="a" d="M442.152,336.82v-137.8c0-29.285-14.121-52.727-40.836-67.785a122.4,122.4,0,0,0-37.637-13.371,80.393,80.393,0,0,0-8.066-5.293c-.965-28.371-10.9-53.605-28.9-73.211A7.5,7.5,0,1,0,315.664,49.5c16.375,17.84,25.031,41.23,25.031,67.645a82.506,82.506,0,0,1-10.223,39.289C317.324,181,294.722,199.4,271.172,213.5c-13.895,8.316-28.473,14.617-43.359,20.824-27.945-11.652-54.18-24.609-76.676-45.328-18.906-17.41-36.207-41.609-36.207-71.855,0-32.2,13.035-60.035,36.7-78.379C171.695,23.218,198.039,15,227.812,15c25,0,48,5.941,66.539,17.18a7.5,7.5,0,1,0,7.777-12.824C281.246,6.691,255.551,0,227.812,0c-33.129,0-62.652,9.3-85.367,26.91-26.277,20.367-41.227,50.652-42.426,85.66a80.39,80.39,0,0,0-8.07,5.293,122.4,122.4,0,0,0-37.637,13.371c-26.719,15.059-40.84,38.5-40.84,67.785v137.8A20.99,20.99,0,0,0,0,356.383v39.336a21,21,0,0,0,20.973,20.973H68.433v14.223a23.318,23.318,0,0,0-15.781,22.031v35.777A23.306,23.306,0,0,0,75.933,512H379.7a23.3,23.3,0,0,0,23.277-23.277V452.945A23.32,23.32,0,0,0,387.2,430.914V416.691h47.457a21,21,0,0,0,20.973-20.973V356.383a20.993,20.993,0,0,0-13.477-19.562Zm-193.02-95.129a238.568,238.568,0,0,0,48.281-27.559c27.824-20.3,52.59-48.949,57.41-84.18.281.211.57.438.855.66,8.977,6.938,16.516,16.977,16.516,28.77V429.667H274.812V306.507a79.611,79.611,0,0,0-30.77-62.7ZM28.472,199.019c0-23.75,11.043-42.086,32.828-54.5a97.078,97.078,0,0,1,12.266-5.863,45.11,45.11,0,0,0-5.137,20.73V335.409H28.472Zm-7.5,202.672A5.983,5.983,0,0,1,15,395.719V356.383a5.983,5.983,0,0,1,5.977-5.973H68.429v51.281Zm367,51.254v35.777A8.286,8.286,0,0,1,379.695,497H75.929a8.286,8.286,0,0,1-8.277-8.277V452.945a8.286,8.286,0,0,1,8.277-8.277h42.379a7.5,7.5,0,1,0,0-15H83.429V159.383c0-7.844,3.418-15.16,8.43-21.062l.074-.086A55.562,55.562,0,0,1,100.808,130c.125.93.277,1.848.434,2.762,5.723,34.1,29.855,61.586,56.973,81.371,20.57,15.012,43.094,25.395,66.477,35.145,21.758,9.074,35.121,34.461,35.121,57.234v123.16h-111.5a7.5,7.5,0,1,0,0,15H379.695a8.28,8.28,0,0,1,8.277,8.273ZM387.1,156.558a45.392,45.392,0,0,0-5.043-17.906,97.61,97.61,0,0,1,12.27,5.859c21.781,12.418,32.824,30.758,32.824,54.508V335.406H387.195V159.383c0-.941-.031-1.887-.094-2.824Zm53.527,239.16a5.981,5.981,0,0,1-5.977,5.973H387.195V350.409h47.457a5.981,5.981,0,0,1,5.977,5.973Zm0,0"/></g></svg>