<svg xmlns="http://www.w3.org/2000/svg" viewBox="0 0 26.404 28.369"><defs><style>.a{fill:#787878;}</style></defs><g transform="translate(-875.798 -223.315)"><path class="a" d="M307.509,175.137l-2.221-.081-.481,13.147,2.221.081Z" transform="translate(586.891 57.959)"/><rect class="a" width="2.222" height="13.147" transform="translate(887.889 233.056)"/><path class="a" d="M161.121,188.2l-.481-13.147-2.221.082.482,13.147Z" transform="translate(725.181 57.966)"/><path class="a" d="M17.379,76.867v2.222h2.312l1.834,20.874a1.11,1.11,0,0,0,1.1,1.014H38.494a1.11,1.11,0,0,0,1.1-1.014l1.834-20.874h2.349V76.867Zm20.1,21.888H23.646L21.918,79.089H39.206Z" transform="translate(858.419 150.707)"/><path class="a" d="M166.187,0h-7.259a1.854,1.854,0,0,0-1.852,1.852V5.37H159.3V2.222h6.518V5.37h2.222V1.852A1.854,1.854,0,0,0,166.187,0Z" transform="translate(726.443 223.315)"/></g></svg>