<svg xmlns="http://www.w3.org/2000/svg" viewBox="0 0 477.242 512"><defs><style>.a{fill:#666;}</style></defs><g transform="translate(-6596 -200)"><path class="a" d="M353.574,176.526l-40.078-1.47L304.807,412.34l40.078,1.464Z" transform="translate(6578.621 200)"/><rect class="a" width="40.104" height="237.285" transform="translate(6814.569 375.791)"/><path class="a" d="M207.186,412.334,198.5,175.049l-40.078,1.471,8.69,237.284Z" transform="translate(6578.621 200)"/><path class="a" d="M17.379,76.867v40.1H59.168L92.32,493.706A20.048,20.048,0,0,0,112.292,512h286.74A20.047,20.047,0,0,0,419,493.7l33.153-376.728h42.464v-40.1ZM380.665,471.9H130.654L99.426,116.971H411.9Z" transform="translate(6578.621 200)"/><path class="a" d="M321.5,0H190.5a33.458,33.458,0,0,0-33.42,33.42v63.5h40.1V40.1H314.82V96.919h40.1V33.42A33.458,33.458,0,0,0,321.5,0Z" transform="translate(6578.621 200)"/></g></svg>