<svg xmlns="http://www.w3.org/2000/svg" viewBox="0 0 64.415 15"><defs><style>.a{fill:#fff;}</style></defs><path class="a" d="M10.471-11.895c.212,0,.655.071.655-.266,0-.177-1.186-3.169-1.452-3.169-.425,0-1.505,1.169-3.258,1.169A2.162,2.162,0,0,1,4.185-16.6,2.241,2.241,0,0,1,6.4-19.013a6.855,6.855,0,0,1,1.54.354,16.256,16.256,0,0,0,1.2-2.9c0-.3-.584-.372-.8-.372-1.487,0-2.744.832-3.311.832-.5,0-.567-.637-.567-1.009a2.347,2.347,0,0,1,2.514-2.426A4.811,4.811,0,0,1,9.55-23.7a10.84,10.84,0,0,0,1.363-2.621c0-.354-.637-.3-.85-.3H3.087c-.513,0-1.487,8.18-1.487,10.553.089,3.594-.195,4.214.744,4.179Zm5.241.266c2.125,0,4.037-1.31,4.037-3.612,0-3.594-5.17-3.559-5.17-5.383,0-.531.744-.779,1.293-.779,1.629,0,1.735,1.363,2.2,1.363.407,0,1.4-1.434,1.4-1.771,0-.354-1.222-1.682-3.435-1.682a3.359,3.359,0,0,0-3.647,3.329c0,3.524,4.781,3.045,4.781,4.869,0,.9-.85,1.275-1.576,1.275-2.514,0-2.957-2.674-3.045-2.674a3.279,3.279,0,0,0-.567,1.895C11.976-12.727,13.835-11.629,15.712-11.629Zm9.154,0c2.125,0,4.037-1.31,4.037-3.612,0-3.594-5.17-3.559-5.17-5.383,0-.531.744-.779,1.293-.779,1.629,0,1.735,1.363,2.2,1.363.407,0,1.4-1.434,1.4-1.771,0-.354-1.222-1.682-3.435-1.682a3.359,3.359,0,0,0-3.647,3.329c0,3.524,4.781,3.045,4.781,4.869,0,.9-.85,1.275-1.576,1.275-2.514,0-2.957-2.674-3.045-2.674A3.279,3.279,0,0,0,21.13-14.8C21.13-12.727,22.989-11.629,24.866-11.629Zm9.579,0c2.125,0,3.86-1.293,3.86-3.541,0-.142-.053-1.062-.319-1.062-.248,0-.248,2.213-3.152,2.213-.885,0-2.231-.6-2.231-1.434,0-1.841,5.7-1.045,5.7-4.852,0-2.089-1.647-3.187-3.594-3.187-2.373,0-4.745,2.125-4.745,6.41C29.965-14.25,31.276-11.629,34.445-11.629Zm.177-9.774a1.429,1.429,0,0,1,1.487,1.346c0,.9-3.223,1.611-3.435,1.611-.23,0-.319-.195-.319-.39A2.554,2.554,0,0,1,34.622-21.4ZM46.7-11.895c.6,0,1.151.354,1.151-6.6,0-4.657-2.054-4.728-2.55-4.728a6.874,6.874,0,0,0-2.249.726c-.177,0-.266-.159-.266-.336,0-.248.159-.46.159-.637,0-.407-.637-.319-1.257-.319-1.363,0-1.983-.5-1.983,7.525,0,4.674.266,4.373.921,4.373H42.13c.177,0,.478.018.478-.23a41.29,41.29,0,0,1-.513-5.064c0-3.506,1.381-3.948,2.054-3.948,1.2,0,1.31,1.576,1.31,2.833a21.481,21.481,0,0,1-.9,6.126c0,.336.39.283.62.283Zm6.516.266A3.24,3.24,0,0,0,56.7-15.064c0-.726-.177-1.045-.266-1.045-.159,0-.6,1.753-2.514,1.753-1.682,0-2.5-1.434-2.5-3.152,0-1.487.655-3.9,2.479-3.9,1.434,0,1.363,1.31,1.771,1.31.655,0,1.045-1.027,1.045-1.558,0-1.009-1.115-1.841-2.656-1.841-3.488,0-5.029,3.453-5.029,6.5C49.035-14.409,50.274-11.629,53.214-11.629Zm8.942,0c2.125,0,3.86-1.293,3.86-3.541,0-.142-.053-1.062-.319-1.062-.248,0-.248,2.213-3.152,2.213-.885,0-2.231-.6-2.231-1.434,0-1.841,5.7-1.045,5.7-4.852,0-2.089-1.647-3.187-3.594-3.187-2.373,0-4.745,2.125-4.745,6.41C57.676-14.25,58.986-11.629,62.155-11.629Zm.177-9.774a1.429,1.429,0,0,1,1.487,1.346c0,.9-3.223,1.611-3.435,1.611-.23,0-.319-.195-.319-.39A2.554,2.554,0,0,1,62.332-21.4Z" transform="translate(-1.6 26.629)"/></svg>