<svg xmlns="http://www.w3.org/2000/svg" viewBox="0 0 512 459.243"><defs><style>.a{fill:rgba(0,0,0,0.8);}</style></defs><g transform="translate(0 0)"><path class="a" d="M225.934,73.891a7.111,7.111,0,1,1-7.109-7.113A7.114,7.114,0,0,1,225.934,73.891Zm0,0"/><path class="a" d="M300.289,73.891a7.111,7.111,0,1,1-7.113-7.113A7.114,7.114,0,0,1,300.289,73.891Zm0,0"/><path class="a" d="M326.52,173.852a6.156,6.156,0,1,1-6.156-6.16A6.156,6.156,0,0,1,326.52,173.852Zm0,0"/><path class="a" d="M320.363,350.086a7.5,7.5,0,0,0-7.5,7.5v14a7.5,7.5,0,1,0,15,0v-14A7.5,7.5,0,0,0,320.363,350.086Zm0,0"/><path class="a" d="M320.363,311.082a7.5,7.5,0,0,0-7.5,7.5v14a7.5,7.5,0,1,0,15,0v-14A7.5,7.5,0,0,0,320.363,311.082Zm0,0"/><path class="a" d="M320.363,272.078a7.5,7.5,0,0,0-7.5,7.5v14a7.5,7.5,0,0,0,15,0v-14A7.5,7.5,0,0,0,320.363,272.078Zm0,0"/><path class="a" d="M197.793,173.852a6.156,6.156,0,1,1-6.156-6.16A6.158,6.158,0,0,1,197.793,173.852Zm0,0"/><path class="a" d="M191.637,272.078a7.5,7.5,0,0,0-7.5,7.5v14a7.5,7.5,0,0,0,15,0v-14A7.5,7.5,0,0,0,191.637,272.078Zm0,0"/><path class="a" d="M191.637,311.082a7.5,7.5,0,0,0-7.5,7.5v14a7.5,7.5,0,1,0,15,0v-14A7.5,7.5,0,0,0,191.637,311.082Zm0,0"/><path class="a" d="M191.637,350.086a7.5,7.5,0,0,0-7.5,7.5v14a7.5,7.5,0,1,0,15,0v-14A7.5,7.5,0,0,0,191.637,350.086Zm0,0"/><path class="a" d="M447.125,422.41a7.111,7.111,0,1,1-7.113-7.109A7.112,7.112,0,0,1,447.125,422.41Zm0,0"/><path class="a" d="M79.1,422.41a7.113,7.113,0,1,1-7.113-7.109A7.114,7.114,0,0,1,79.1,422.41Zm0,0"/><path class="a" d="M419.41,81.48a7.7,7.7,0,0,0-1.91-2.215L363.785,37.332A33.8,33.8,0,0,0,359.4,24.785l-12.449-21.1A7.561,7.561,0,0,0,340.488,0L171.433.008a7.367,7.367,0,0,0-6.383,3.68L152.6,24.785a33.794,33.794,0,0,0-4.383,12.547S94.527,79.242,94.5,79.266a7.6,7.6,0,0,0-1.914,2.215L57.832,142.855a7.5,7.5,0,0,0,13.055,7.391L99.566,99.6c.371.656.75,1.348,1.137,2.066,0,.012.012.02.016.031,16.922,31.113,19.418,68.391,10.543,102.336,0,.02-.012.043-.016.063L81.722,256.238A49.3,49.3,0,0,0,77.8,295.922L103.3,373.238l-58.562,19.3L21.293,321.426a125.916,125.916,0,0,1,9.992-101.25l24.27-42.855A7.5,7.5,0,1,0,42.5,169.93L18.234,212.781A140.947,140.947,0,0,0,7.047,326.121s42.176,127.93,42.191,127.984a7.6,7.6,0,0,0,9.473,4.773l72.8-24a7.869,7.869,0,0,0,.832-.336,26.345,26.345,0,0,0,2.992.18h158.6a7.5,7.5,0,0,0,0-15s-159.223-.016-159.535-.043l-8.293-25.164H385.895L377.6,419.683c-.312.027-53.668.043-53.668.043a7.5,7.5,0,0,0,0,15h52.73a26.345,26.345,0,0,0,2.992-.18,8.221,8.221,0,0,0,.832.336s72.8,24,72.8,24a7.592,7.592,0,0,0,9.473-4.773l42.191-127.984a140.948,140.948,0,0,0-11.187-113.34S419.414,81.48,419.41,81.48ZM346.48,32.41c4.207,7.129,3.242,20.4-5.09,24.563,0,0-50.832,36.973-50.855,36.984a4.834,4.834,0,0,1-7.508-3.109A53.436,53.436,0,0,0,272.6,67.07a52.821,52.821,0,0,0-3.828-4.371L338,18.035s8.48,14.367,8.484,14.375Zm-180.961,0L174,18.035,243.23,62.7a52.031,52.031,0,0,0-3.844,4.395,53,53,0,0,0-10.414,23.758,4.819,4.819,0,0,1-3.992,3.969,4.362,4.362,0,0,1-3.516-.855L170.605,56.973a18.891,18.891,0,0,1-5.086-24.562ZM92.05,291.223a34.264,34.264,0,0,1,2.727-27.59L109.55,237.54V344.3ZM61.136,442.286l-11.707-35.5,58.563-19.3,11.7,35.5ZM248.5,379.521H124.55V212.3c18.457-63.824-4.848-109.531-15.2-125.6L150.4,54.657a33.562,33.562,0,0,0,9.375,12.855c.652.555,52.852,38.566,52.867,38.578,11.7,8.512,28.668,1.465,31.113-12.684A39.239,39.239,0,0,1,248.5,80.27ZM256,53.083,196.972,15H315.027ZM387.448,379.521H263.5V80.271c2.539,4.316,3.871,9.156,4.938,14.016,3,13.664,19.574,20.059,30.922,11.8L350.21,69.107A33.876,33.876,0,0,0,361.6,54.657L402.644,86.7c-10.348,16.07-33.652,61.777-15.2,125.6Zm63.414,62.766-58.555-19.3,11.7-35.5,58.563,19.3ZM402.448,344.3V237.54l14.773,26.1a34.263,34.263,0,0,1,2.727,27.59ZM490.7,321.427,467.265,392.54l-58.562-19.3,25.492-77.316a49.291,49.291,0,0,0-3.918-39.68L400.753,204.1c-.008-.023-.012-.047-.02-.066-9.062-34.746-6.113-72.867,11.7-104.43L480.71,220.176a125.9,125.9,0,0,1,9.992,101.25Zm0,0"/><path class="a" d="M352.859,144.109H287.867a7.5,7.5,0,0,0-7.5,7.5v56.473a40.051,40.051,0,0,0,32.5,39.277v7.219a7.5,7.5,0,1,0,15,0v-7.219a40.052,40.052,0,0,0,32.5-39.277V151.609a7.5,7.5,0,0,0-7.5-7.5Zm-7.5,63.973a25,25,0,0,1-49.992,0V194.8a39.9,39.9,0,0,0,49.992,0Zm0-44.484a25,25,0,0,1-49.992,0v-4.488h49.992Zm0,0"/><path class="a" d="M224.133,144.109H159.141a7.5,7.5,0,0,0-7.5,7.5v56.473a40.051,40.051,0,0,0,32.5,39.277v7.219a7.5,7.5,0,1,0,15,0v-7.219a40.052,40.052,0,0,0,32.5-39.277V151.609a7.5,7.5,0,0,0-7.5-7.5Zm-7.5,63.973a25,25,0,0,1-49.992,0V194.8a40.232,40.232,0,0,0,24.461,8.789c.176,0,.355,0,.535,0a40.192,40.192,0,0,0,25-8.793Zm0-44.484a25,25,0,0,1-49.992,0v-4.488h49.988V163.6Zm0,0"/></g></svg>