<svg xmlns="http://www.w3.org/2000/svg" viewBox="0 0 460.944 512"><defs><style>.a{fill:rgba(0,0,0,0.8);}</style></defs><g transform="translate(0.001 0)"><path class="a" d="M91.855,205.75l1.574-13.914a7.5,7.5,0,1,0-14.9-1.687l-1.578,13.91a7.5,7.5,0,0,0,6.609,8.3,7.028,7.028,0,0,0,.855.051,7.5,7.5,0,0,0,7.441-6.656Zm0,0"/><path class="a" d="M96.246,167l1.574-13.914a7.5,7.5,0,1,0-14.906-1.687L81.34,165.309a7.5,7.5,0,0,0,6.609,8.293,6.965,6.965,0,0,0,.852.051A7.5,7.5,0,0,0,96.246,167Zm0,0"/><path class="a" d="M56.586,383.918l-1.574,13.91a7.5,7.5,0,0,0,6.609,8.3,6.956,6.956,0,0,0,.852.047,7.5,7.5,0,0,0,7.441-6.656l1.578-13.91a7.5,7.5,0,0,0-14.906-1.687Zm0,0"/><path class="a" d="M78.691,322.012,80.266,308.1a7.5,7.5,0,1,0-14.9-1.687l-1.578,13.91a7.5,7.5,0,0,0,6.609,8.3,7.028,7.028,0,0,0,.855.051,7.5,7.5,0,0,0,7.441-6.656Zm0,0"/><path class="a" d="M74.3,360.766l1.574-13.914a7.5,7.5,0,0,0-14.906-1.687L59.4,359.075a7.5,7.5,0,0,0,6.609,8.3,7.028,7.028,0,0,0,.855.051,7.5,7.5,0,0,0,7.441-6.656Zm0,0"/><path class="a" d="M87.469,244.5l1.574-13.914a7.5,7.5,0,1,0-14.9-1.687l-1.578,13.914a7.5,7.5,0,0,0,6.609,8.3,7.884,7.884,0,0,0,.852.047,7.5,7.5,0,0,0,7.445-6.656Zm0,0"/><path class="a" d="M83.082,283.258l1.574-13.914a7.5,7.5,0,0,0-14.906-1.687l-1.574,13.91a7.5,7.5,0,0,0,6.609,8.3,6.965,6.965,0,0,0,.852.051,7.5,7.5,0,0,0,7.445-6.656Zm0,0"/><path class="a" d="M364.7,167a7.5,7.5,0,0,0,7.441,6.656,7.9,7.9,0,0,0,.855-.047,7.5,7.5,0,0,0,6.609-8.3l-1.578-13.914a7.5,7.5,0,0,0-14.9,1.691Zm0,0"/><path class="a" d="M378.5,222.293a7.507,7.507,0,0,0-6.609,8.3l1.578,13.914a7.5,7.5,0,0,0,7.441,6.656,7.955,7.955,0,0,0,.855-.047,7.5,7.5,0,0,0,6.605-8.3L386.8,228.9A7.5,7.5,0,0,0,378.5,222.293Zm0,0"/><path class="a" d="M374.117,183.539a7.5,7.5,0,0,0-6.609,8.3l1.574,13.914a7.5,7.5,0,0,0,7.445,6.656,7.83,7.83,0,0,0,.852-.047,7.5,7.5,0,0,0,6.609-8.3l-1.574-13.914A7.5,7.5,0,0,0,374.117,183.539Zm0,0"/><path class="a" d="M382.895,261.047a7.5,7.5,0,0,0-6.609,8.3l1.574,13.914a7.5,7.5,0,0,0,7.445,6.656,7.011,7.011,0,0,0,.852-.051,7.5,7.5,0,0,0,6.609-8.3l-1.574-13.91A7.5,7.5,0,0,0,382.895,261.047Zm0,0"/><path class="a" d="M396.059,377.309a7.5,7.5,0,0,0-6.609,8.3l1.574,13.91a7.5,7.5,0,0,0,7.445,6.66,6.965,6.965,0,0,0,.852-.051,7.5,7.5,0,0,0,6.609-8.3l-1.574-13.91A7.5,7.5,0,0,0,396.059,377.309Zm0,0"/><path class="a" d="M391.672,338.555a7.5,7.5,0,0,0-6.609,8.3l1.574,13.914a7.5,7.5,0,0,0,7.441,6.656,7.075,7.075,0,0,0,.855-.051,7.5,7.5,0,0,0,6.609-8.3l-1.578-13.91A7.5,7.5,0,0,0,391.672,338.555Zm0,0"/><path class="a" d="M387.281,299.8a7.5,7.5,0,0,0-6.609,8.3l1.574,13.914a7.506,7.506,0,0,0,7.445,6.656,6.965,6.965,0,0,0,.852-.051,7.5,7.5,0,0,0,6.609-8.3l-1.574-13.91A7.5,7.5,0,0,0,387.281,299.8Zm0,0"/><path class="a" d="M260.8,30.332a7.5,7.5,0,0,0-7.5-7.5h-45.66a7.5,7.5,0,0,0-7.5,7.5V56.141a7.5,7.5,0,0,0,7.5,7.5H253.3a7.5,7.5,0,0,0,7.5-7.5Zm-15,18.309h-30.66V37.832H245.8Zm0,0"/><path class="a" d="M76.98,0a7.5,7.5,0,0,0-7.453,6.656S63.7,58.1,63.7,58.109l-6.9,60.91-35.219,311A20.991,20.991,0,0,0,5.109,446.188S.441,468.25.437,468.266a21.1,21.1,0,0,0,16.1,24.742l87.719,18.555A21.11,21.11,0,0,0,129,495.465l4.668-22.078a20.9,20.9,0,0,0-8.5-21.457l12.074-38.23a7.5,7.5,0,0,0-14.3-4.52l-12.02,38.059L65.6,437.652l1.5-13.293a7.5,7.5,0,1,0-14.9-1.684l-1.344,11.859L36.512,431.5,71.188,125.312c.168-.066.332-.141.5-.207a85.651,85.651,0,0,0,50.34-57.676,38.174,38.174,0,0,0,1.613-8.262c0-.074.012-.145.012-.219V15h15.441V58.949a7.5,7.5,0,0,0,7.5,7.5h23.953c.02.066.047.129.066.2a27.8,27.8,0,0,0,26.418,19.824h9.23V145.32l-74.34,235.391a7.5,7.5,0,0,0,14.3,4.52l73.035-231.262H241.68l94.1,297.961a20.9,20.9,0,0,0-8.5,21.457s4.664,22.055,4.668,22.078a21.188,21.188,0,0,0,24.742,16.1s87.648-18.543,87.715-18.555a21.092,21.092,0,0,0,16.1-24.738l-4.672-22.078a20.98,20.98,0,0,0-16.473-16.164L391.41,6.656A7.5,7.5,0,0,0,383.961,0Zm37.48,463.324a5.871,5.871,0,0,1,4.527,6.957s-4.66,22.043-4.668,22.078a5.949,5.949,0,0,1-6.961,4.527L19.645,478.332a5.95,5.95,0,0,1-4.531-6.961s4.664-22.035,4.672-22.078a5.953,5.953,0,0,1,6.961-4.527ZM106.606,66.847a69.781,69.781,0,0,1-33.1,40.8c-.113.063-.227.129-.34.188l4.688-41.387h28.875c-.043.133-.082.266-.125.4Zm2.043-15.4h-29.1L83.68,15h24.969Zm63.746-36.191a27.61,27.61,0,0,0-2.887,12.215V51.445H154.094V15h18.43l-.129.258ZM434.2,444.765a5.932,5.932,0,0,1,6.957,4.527s4.656,22.012,4.672,22.078a5.915,5.915,0,0,1-4.531,6.957l-87.715,18.559a5.934,5.934,0,0,1-6.961-4.527l-4.668-22.078a5.877,5.877,0,0,1,4.527-6.961S434.2,444.765,434.2,444.765Zm-46.426-336.93c-.113-.062-.227-.129-.344-.191a70.531,70.531,0,0,1-31.668-36.609c-.539-1.43-1.094-3.051-1.551-4.586h28.875ZM352.289,15h24.973l4.129,36.449h-29.1Zm-45.441,0V51.445H291.434V27.523a27.689,27.689,0,0,0-2.895-12.269c-.043-.082-.082-.172-.125-.254ZM197.032,71.468a12.743,12.743,0,0,1-12.523-12.523V27.523A12.688,12.688,0,0,1,197.032,15h66.879a12.536,12.536,0,0,1,12.52,12.523V58.945a12.718,12.718,0,0,1-12.516,12.523H197.032Zm45.684,67.5H221.262v-52.5H251.5c-.754,30.809-6.055,46.426-8.785,52.5Zm12.617,8.418c3.617-7.008,10.348-24.8,11.168-61.043a27.616,27.616,0,0,0,6.18-1.316A28.208,28.208,0,0,0,290.4,66.449h23.953a7.5,7.5,0,0,0,7.5-7.5V15H337.29V58.8c0,5.043,2.023,10.734,3.672,15.438a85.663,85.663,0,0,0,30.57,41.074,84.9,84.9,0,0,0,18.223,10L424.43,431.5l-14.344,3.035-1.344-11.863a7.5,7.5,0,1,0-14.9,1.688l1.5,13.293-45.312,9.586Zm0,0"/></g></svg>