<svg xmlns="http://www.w3.org/2000/svg" xmlns:xlink="http://www.w3.org/1999/xlink" width="116.416" height="27.117" viewBox="0 0 116.416 27.117"><defs><style>.a{fill:url(#a);}</style><linearGradient id="a" x1="0.5" y1="-0.527" x2="0.5" y2="1.496" gradientUnits="objectBoundingBox"><stop offset="0" stop-color="#371f72"/><stop offset="1" stop-color="#6058e4"/></linearGradient></defs><path class="a" d="M17.632,0c.384,0,1.184.128,1.184-.48,0-.32-2.144-5.728-2.624-5.728-.768,0-2.72,2.112-5.888,2.112-2.688,0-4.032-1.856-4.032-4.416a4.05,4.05,0,0,1,1.057-3.043,4.05,4.05,0,0,1,2.943-1.309,12.389,12.389,0,0,1,2.784.64c.384,0,2.176-5.216,2.176-5.248,0-.544-1.056-.672-1.44-.672-2.688,0-4.96,1.5-5.984,1.5-.9,0-1.024-1.152-1.024-1.824a4.242,4.242,0,0,1,1.294-3.206,4.242,4.242,0,0,1,3.25-1.178c3.136,0,4.1,1.5,4.64,1.5.416,0,2.464-4.48,2.464-4.736,0-.64-1.152-.544-1.536-.544H4.288C3.36-26.624,1.6-11.84,1.6-7.552,1.76-1.056,1.248.064,2.944,0ZM27.1.48c3.84,0,7.3-2.368,7.3-6.528,0-6.5-9.344-6.432-9.344-9.728,0-.96,1.344-1.408,2.336-1.408,2.944,0,3.136,2.464,3.968,2.464.736,0,2.528-2.592,2.528-3.2,0-.64-2.208-3.04-6.208-3.04-3.456,0-6.592,2.112-6.592,6.016,0,6.368,8.64,5.5,8.64,8.8,0,1.632-1.536,2.3-2.848,2.3-4.544,0-5.344-4.832-5.5-4.832-.256,0-1.024,1.92-1.024,3.424C20.352-1.5,23.712.48,27.1.48Zm16.544,0c3.84,0,7.3-2.368,7.3-6.528,0-6.5-9.344-6.432-9.344-9.728,0-.96,1.344-1.408,2.336-1.408,2.944,0,3.136,2.464,3.968,2.464.736,0,2.528-2.592,2.528-3.2,0-.64-2.208-3.04-6.208-3.04-3.456,0-6.592,2.112-6.592,6.016,0,6.368,8.64,5.5,8.64,8.8,0,1.632-1.536,2.3-2.848,2.3-4.544,0-5.344-4.832-5.5-4.832-.256,0-1.024,1.92-1.024,3.424C36.9-1.5,40.256.48,43.648.48ZM60.96.48c3.84,0,6.976-2.336,6.976-6.4,0-.256-.1-1.92-.576-1.92-.448,0-.448,4-5.7,4-1.6,0-4.032-1.088-4.032-2.592,0-3.328,10.3-1.888,10.3-8.768,0-3.776-2.976-5.76-6.5-5.76-4.288,0-8.576,3.84-8.576,11.584C52.864-4.256,55.232.48,60.96.48Zm.32-17.664a2.583,2.583,0,0,1,2.688,2.432c0,1.632-5.824,2.912-6.208,2.912-.416,0-.576-.352-.576-.7C57.184-14.4,58.688-17.184,61.28-17.184ZM83.1,0c1.088,0,2.08.64,2.08-11.936,0-8.416-3.712-8.544-4.608-8.544-2.048,0-3.52,1.312-4.064,1.312-.32,0-.48-.288-.48-.608,0-.448.288-.832.288-1.152,0-.736-1.152-.576-2.272-.576-2.464,0-3.584-.9-3.584,13.6,0,8.448.48,7.9,1.664,7.9h2.72c.32,0,.864.032.864-.416a74.618,74.618,0,0,1-.928-9.152c0-6.336,2.5-7.136,3.712-7.136,2.176,0,2.368,2.848,2.368,5.12A38.823,38.823,0,0,1,79.232-.512c0,.608.7.512,1.12.512ZM94.88.48c3.776,0,6.3-2.368,6.3-6.208,0-1.312-.32-1.888-.48-1.888-.288,0-1.088,3.168-4.544,3.168-3.04,0-4.512-2.592-4.512-5.7,0-2.688,1.184-7.04,4.48-7.04,2.592,0,2.464,2.368,3.2,2.368,1.184,0,1.888-1.856,1.888-2.816,0-1.824-2.016-3.328-4.8-3.328-6.3,0-9.088,6.24-9.088,11.744C87.328-4.544,89.568.48,94.88.48Zm16.16,0c3.84,0,6.976-2.336,6.976-6.4,0-.256-.1-1.92-.576-1.92-.448,0-.448,4-5.7,4-1.6,0-4.032-1.088-4.032-2.592,0-3.328,10.3-1.888,10.3-8.768,0-3.776-2.976-5.76-6.5-5.76-4.288,0-8.576,3.84-8.576,11.584.012,5.12,2.38,9.856,8.108,9.856Zm.32-17.664a2.583,2.583,0,0,1,2.688,2.432c0,1.632-5.824,2.912-6.208,2.912-.416,0-.576-.352-.576-.7,0-1.86,1.5-4.644,4.1-4.644Z" transform="translate(-1.6 26.637)"/></svg>