<svg xmlns="http://www.w3.org/2000/svg" viewBox="0 0 504 302.4"><defs><style>.a{fill:#ffb600;}.b{fill:#f7981d;}.c{fill:#ff8500;}.d{fill:#ff5050;}.e{fill:#e52836;}.f{fill:#cb2026;}.g{fill:#fff;}.h{fill:#dce5e5;}</style></defs><g transform="translate(0 -100.8)"><path class="a" d="M504,252A151.079,151.079,0,0,1,352.8,403.2c-83.2,0-151.2-68-151.2-151.2h0c0-83.2,67.2-151.2,150.4-151.2,84.8,0,152,68,152,151.2Z"/><path class="b" d="M352.8,100.8C436,100.8,504,168.8,504,252h0A151.079,151.079,0,0,1,352.8,403.2c-83.2,0-151.2-68-151.2-151.2"/><path class="c" d="M352.8,100.8C436,100.8,504,168.8,504,252h0A151.079,151.079,0,0,1,352.8,403.2"/><path class="d" d="M149.6,100.8C67.2,101.6,0,168.8,0,252A151.079,151.079,0,0,0,151.2,403.2c39.2,0,74.4-15.2,101.6-39.2h0c5.6-4.8,10.4-10.4,15.2-16H236.8a184.55,184.55,0,0,1-11.2-15.2h53.6a102.481,102.481,0,0,0,8.8-16H216.8a95.348,95.348,0,0,1-6.4-16h83.2c4.8-15.2,8-31.2,8-48,0-11.2-1.6-21.6-3.2-32H205.6c.8-5.6,2.4-10.4,4-16h83.2a95.349,95.349,0,0,0-6.4-16H216c2.4-5.6,5.6-10.4,8.8-16h53.6a76.078,76.078,0,0,0-12-16H236.8A136.354,136.354,0,0,1,252,141.6c-26.4-24.8-62.4-39.2-101.6-39.2C150.4,100.8,150.4,100.8,149.6,100.8Z"/><path class="e" d="M0,252A151.079,151.079,0,0,0,151.2,403.2c39.2,0,74.4-15.2,101.6-39.2h0c5.6-4.8,10.4-10.4,15.2-16H236.8a184.55,184.55,0,0,1-11.2-15.2h53.6a102.481,102.481,0,0,0,8.8-16H216.8a95.348,95.348,0,0,1-6.4-16h83.2c4.8-15.2,8-31.2,8-48,0-11.2-1.6-21.6-3.2-32H205.6c.8-5.6,2.4-10.4,4-16h83.2a95.349,95.349,0,0,0-6.4-16H216c2.4-5.6,5.6-10.4,8.8-16h53.6a76.078,76.078,0,0,0-12-16H236.8A136.354,136.354,0,0,1,252,141.6c-26.4-24.8-62.4-39.2-101.6-39.2h-.8"/><path class="f" d="M151.2,403.2c39.2,0,74.4-15.2,101.6-39.2h0c5.6-4.8,10.4-10.4,15.2-16H236.8a184.55,184.55,0,0,1-11.2-15.2h53.6a102.481,102.481,0,0,0,8.8-16H216.8a95.348,95.348,0,0,1-6.4-16h83.2c4.8-15.2,8-31.2,8-48,0-11.2-1.6-21.6-3.2-32H205.6c.8-5.6,2.4-10.4,4-16h83.2a95.349,95.349,0,0,0-6.4-16H216c2.4-5.6,5.6-10.4,8.8-16h53.6a76.078,76.078,0,0,0-12-16H236.8A136.354,136.354,0,0,1,252,141.6c-26.4-24.8-62.4-39.2-101.6-39.2h-.8"/><path class="g" d="M204.8,290.4l2.4-13.6c-.8,0-2.4.8-4,.8-5.6,0-6.4-3.2-5.6-4.8l4.8-28h8.8l2.4-15.2h-8l1.6-9.6h-16s-9.6,52.8-9.6,59.2c0,9.6,5.6,13.6,12.8,13.6A24.557,24.557,0,0,0,204.8,290.4Z"/><path class="g" d="M210.4,264.8c0,22.4,15.2,28,28,28,12,0,16.8-2.4,16.8-2.4l3.2-15.2s-8.8,4-16.8,4c-17.6,0-14.4-12.8-14.4-12.8H260s2.4-10.4,2.4-14.4c0-10.4-5.6-23.2-23.2-23.2C222.4,227.2,210.4,244.8,210.4,264.8Zm28-23.2c8.8,0,7.2,10.4,7.2,11.2H228C228,252,229.6,241.6,238.4,241.6Z"/><path class="g" d="M340,290.4l3.2-17.6s-8,4-13.6,4c-11.2,0-16-8.8-16-18.4,0-19.2,9.6-29.6,20.8-29.6,8,0,14.4,4.8,14.4,4.8l2.4-16.8s-9.6-4-18.4-4c-18.4,0-36.8,16-36.8,46.4,0,20,9.6,33.6,28.8,33.6C331.2,292.8,340,290.4,340,290.4Z"/><path class="g" d="M116.8,227.2a56.659,56.659,0,0,0-19.2,3.2L95.2,244a47.288,47.288,0,0,1,17.6-3.2c5.6,0,10.4.8,10.4,5.6,0,3.2-.8,4-.8,4h-7.2c-13.6,0-28.8,5.6-28.8,24,0,14.4,9.6,17.6,15.2,17.6,11.2,0,16-7.2,16.8-7.2l-.8,6.4H132l6.4-44C138.4,228,122.4,227.2,116.8,227.2Zm3.2,36c0,2.4-1.6,15.2-11.2,15.2a6.245,6.245,0,0,1-6.4-6.4c0-4,2.4-9.6,14.4-9.6A12.615,12.615,0,0,0,120,263.2Z"/><path class="g" d="M153.6,292c4,0,24,.8,24-20.8,0-20-19.2-16-19.2-24,0-4,3.2-5.6,8.8-5.6,2.4,0,11.2.8,11.2.8l2.4-14.4a60.769,60.769,0,0,0-15.2-1.6c-12,0-24,4.8-24,20.8,0,18.4,20,16.8,20,24,0,4.8-5.6,5.6-9.6,5.6a52.317,52.317,0,0,1-14.4-2.4l-2.4,14.4C136,290.4,140,292,153.6,292Z"/><path class="g" d="M472.8,214.4,469.6,236s-6.4-8-15.2-8c-14.4,0-27.2,17.6-27.2,38.4,0,12.8,6.4,26.4,20,26.4a21.356,21.356,0,0,0,15.2-6.4l-.8,5.6h16l12-76.8Zm-7.2,42.4c0,8.8-4,20-12.8,20-5.6,0-8.8-4.8-8.8-12.8,0-12.8,5.6-20.8,12.8-20.8C462.4,243.2,465.6,247.2,465.6,256.8Z"/><path class="g" d="M29.6,291.2l9.6-57.6,1.6,57.6H52l20.8-57.6L64,291.2H80.8l12.8-76.8H67.2l-16,47.2-.8-47.2H27.2L14.4,291.2Z"/><path class="g" d="M277.6,291.2c4.8-26.4,5.6-48,16.8-44,1.6-10.4,4-14.4,5.6-18.4h-3.2c-7.2,0-12.8,9.6-12.8,9.6l1.6-8.8H270.4L260,292h17.6Z"/><path class="g" d="M376.8,227.2a56.659,56.659,0,0,0-19.2,3.2L355.2,244a47.288,47.288,0,0,1,17.6-3.2c5.6,0,10.4.8,10.4,5.6,0,3.2-.8,4-.8,4h-7.2c-13.6,0-28.8,5.6-28.8,24,0,14.4,9.6,17.6,15.2,17.6,11.2,0,16-7.2,16.8-7.2l-.8,6.4H392l6.4-44C399.2,228,382.4,227.2,376.8,227.2Zm4,36c0,2.4-1.6,15.2-11.2,15.2a6.245,6.245,0,0,1-6.4-6.4c0-4,2.4-9.6,14.4-9.6C380,263.2,380,263.2,380.8,263.2Z"/><path class="g" d="M412,291.2c4.8-26.4,5.6-48,16.8-44,1.6-10.4,4-14.4,5.6-18.4h-3.2c-7.2,0-12.8,9.6-12.8,9.6l1.6-8.8H404.8L394.4,292H412Z"/><path class="h" d="M180,279.2c0,9.6,5.6,13.6,12.8,13.6a30.451,30.451,0,0,0,12-2.4l2.4-13.6c-.8,0-2.4.8-4,.8-5.6,0-6.4-3.2-5.6-4.8l4.8-28h8.8l2.4-15.2h-8l1.6-9.6"/><path class="h" d="M218.4,264.8c0,22.4,7.2,28,20,28,12,0,16.8-2.4,16.8-2.4l3.2-15.2s-8.8,4-16.8,4c-17.6,0-14.4-12.8-14.4-12.8H260s2.4-10.4,2.4-14.4c0-10.4-5.6-23.2-23.2-23.2C222.4,227.2,218.4,244.8,218.4,264.8Zm20-23.2c8.8,0,10.4,10.4,10.4,11.2H228C228,252,229.6,241.6,238.4,241.6Z"/><path class="h" d="M340,290.4l3.2-17.6s-8,4-13.6,4c-11.2,0-16-8.8-16-18.4,0-19.2,9.6-29.6,20.8-29.6,8,0,14.4,4.8,14.4,4.8l2.4-16.8s-9.6-4-18.4-4c-18.4,0-28.8,16-28.8,46.4,0,20,1.6,33.6,20.8,33.6C331.2,292.8,340,290.4,340,290.4Z"/><path class="h" d="M95.2,244.8a47.288,47.288,0,0,1,17.6-3.2c5.6,0,10.4.8,10.4,5.6,0,3.2-.8,4-.8,4h-7.2c-13.6,0-28.8,5.6-28.8,24,0,14.4,9.6,17.6,15.2,17.6,11.2,0,16-7.2,16.8-7.2l-.8,6.4H132l6.4-44c0-18.4-16-19.2-22.4-19.2m12,34.4c0,2.4-9.6,15.2-19.2,15.2a6.245,6.245,0,0,1-6.4-6.4c0-4,2.4-9.6,14.4-9.6C119.2,263.2,128,263.2,128,263.2Z"/><path class="h" d="M136,290.4s4.8,1.6,18.4,1.6c4,0,24,.8,24-20.8,0-20-19.2-16-19.2-24,0-4,3.2-5.6,8.8-5.6,2.4,0,11.2.8,11.2.8l2.4-14.4a60.769,60.769,0,0,0-15.2-1.6c-12,0-16,4.8-16,20.8,0,18.4,12,16.8,12,24,0,4.8-5.6,5.6-9.6,5.6"/><path class="h" d="M469.6,236s-6.4-8-15.2-8c-14.4,0-19.2,17.6-19.2,38.4,0,12.8-1.6,26.4,12,26.4a21.356,21.356,0,0,0,15.2-6.4l-.8,5.6h16l12-76.8m-20.8,41.6c0,8.8-7.2,20-16,20-5.6,0-8.8-4.8-8.8-12.8,0-12.8,5.6-20.8,12.8-20.8C462.4,243.2,468.8,247.2,468.8,256.8Z"/><path class="h" d="M29.6,291.2l9.6-57.6,1.6,57.6H52l20.8-57.6L64,291.2H80.8l12.8-76.8h-20L51.2,261.6l-.8-47.2H41.6L14.4,291.2Z"/><path class="h" d="M260.8,291.2h16.8c4.8-26.4,5.6-48,16.8-44,1.6-10.4,4-14.4,5.6-18.4h-3.2c-7.2,0-12.8,9.6-12.8,9.6l1.6-8.8"/><path class="h" d="M355.2,244.8a47.288,47.288,0,0,1,17.6-3.2c5.6,0,10.4.8,10.4,5.6,0,3.2-.8,4-.8,4h-7.2c-13.6,0-28.8,5.6-28.8,24,0,14.4,9.6,17.6,15.2,17.6,11.2,0,16-7.2,16.8-7.2l-.8,6.4H392l6.4-44c0-18.4-16-19.2-22.4-19.2m12,34.4c0,2.4-9.6,15.2-19.2,15.2a6.245,6.245,0,0,1-6.4-6.4c0-4,2.4-9.6,14.4-9.6C380,263.2,388,263.2,388,263.2Z"/><path class="h" d="M395.2,291.2H412c4.8-26.4,5.6-48,16.8-44,1.6-10.4,4-14.4,5.6-18.4h-3.2c-7.2,0-12.8,9.6-12.8,9.6l1.6-8.8"/></g></svg>