<svg xmlns="http://www.w3.org/2000/svg" width="30" height="17" viewBox="0 0 30 17"><defs><style>.a{fill:#2d2d2d;}</style></defs><g transform="translate(-177 -362)"><path class="a" d="M28.743,56.833H1.286a1.521,1.521,0,0,1,0-3H28.743a1.521,1.521,0,0,1,0,3Z" transform="translate(176.986 308.167)"/><path class="a" d="M23.955,184.333H1.074a1.592,1.592,0,0,1,0-3H23.955a1.592,1.592,0,0,1,0,3Z" transform="translate(181.986 187.667)"/><path class="a" d="M19.167,184.333H.862a1.751,1.751,0,0,1,0-3h18.3a1.751,1.751,0,0,1,0,3Z" transform="translate(186.986 194.667)"/></g></svg>