<svg xmlns="http://www.w3.org/2000/svg" viewBox="0 0 27.294 18"><defs><style>.a{fill:#fff;}</style></defs><g transform="translate(164.346 2217)"><path class="a" d="M1.17,56.59H26.124a1.4,1.4,0,0,0,0-2.757H1.17a1.4,1.4,0,0,0,0,2.757Z" transform="translate(-164.346 -2270.833)"/><path class="a" d="M1.17,184.09H26.124a1.4,1.4,0,0,0,0-2.757H1.17a1.4,1.4,0,0,0,0,2.757Z" transform="translate(-164.346 -2390.712)"/><path class="a" d="M1.17,184.09H26.124a1.4,1.4,0,0,0,0-2.757H1.17a1.4,1.4,0,0,0,0,2.757Z" transform="translate(-164.346 -2383.09)"/></g></svg>