<svg xmlns="http://www.w3.org/2000/svg" viewBox="0 0 563.43 536.6"><g transform="translate(0 -13.415)"><path d="M280.79,314.559a150.83,150.83,0,0,0,150.8-150.8c0-83.265-67.538-150.341-150.8-150.341s-150.8,67.538-150.8,150.341S197.524,314.559,280.79,314.559Zm0-261.824c61.061,0,111.021,49.959,111.021,111.021s-49.96,111.02-111.021,111.02S169.769,224.817,169.769,163.755,219.728,52.735,280.79,52.735Z"/><path d="M19.891,550.015H543.539a19.744,19.744,0,0,0,19.891-19.891c0-104.082-84.653-189.2-189.2-189.2H189.2C85.116,340.926,0,425.579,0,530.124A19.744,19.744,0,0,0,19.891,550.015ZM189.2,380.708H374.232A149.319,149.319,0,0,1,522.26,510.232H41.17C50.884,437.607,113.334,380.708,189.2,380.708Z"/></g></svg>