<svg xmlns="http://www.w3.org/2000/svg" width="18.999" height="20" viewBox="0 0 18.999 20"><defs><style>.a{fill:#2d2d2d;}</style></defs><path class="a" d="M19.695,18.217l-4.684-4.951a8.128,8.128,0,0,0,1.864-5.191A8.02,8.02,0,0,0,8.929,0,8.02,8.02,0,0,0,.984,8.075,8.02,8.02,0,0,0,8.929,16.15a7.774,7.774,0,0,0,4.552-1.461L18.2,19.677a1.025,1.025,0,0,0,1.465.029,1.065,1.065,0,0,0,.028-1.489ZM8.929,2.107A5.921,5.921,0,0,1,14.8,8.075a5.921,5.921,0,0,1-5.872,5.968A5.921,5.921,0,0,1,3.057,8.075,5.928,5.928,0,0,1,8.929,2.107Z" transform="translate(-0.984)"/></svg>