<svg xmlns="http://www.w3.org/2000/svg" viewBox="0 0 512 512"><defs><style>.a{fill:rgba(0,0,0,0.8);}</style></defs><rect class="a" width="32" height="32" transform="translate(144)"/><path class="a" d="M400,0V32h80v80h32V0Z"/><path class="a" d="M480,480H400v32H512V400H480Z"/><rect class="a" width="32" height="32" transform="translate(144 480)"/><rect class="a" width="32" height="32" transform="translate(208)"/><rect class="a" width="32" height="32" transform="translate(208 480)"/><rect class="a" width="32" height="32" transform="translate(272)"/><rect class="a" width="32" height="32" transform="translate(272 480)"/><rect class="a" width="32" height="32" transform="translate(336)"/><rect class="a" width="32" height="32" transform="translate(0 336)"/><rect class="a" width="32" height="32" transform="translate(0 272)"/><rect class="a" width="32" height="32" transform="translate(0 208)"/><rect class="a" width="32" height="32" transform="translate(0 144)"/><rect class="a" width="32" height="32" transform="translate(480 336)"/><rect class="a" width="32" height="32" transform="translate(480 272)"/><rect class="a" width="32" height="32" transform="translate(480 208)"/><rect class="a" width="32" height="32" transform="translate(480 144)"/><rect class="a" width="32" height="32" transform="translate(336 480)"/><path class="a" d="M32,400H0V512H112V480H32Z"/><path class="a" d="M0,112H32V32h80V0H0Z"/><rect class="a" width="32" height="32" transform="translate(352 352)"/><rect class="a" width="27.424" height="32" transform="translate(242.24 352)"/><rect class="a" width="27.424" height="32" transform="translate(297.136 352)"/><rect class="a" width="27.424" height="32" transform="translate(187.424 352)"/><rect class="a" width="32" height="32" transform="translate(128 352)"/><rect class="a" width="32" height="27.424" transform="translate(128 242.24)"/><rect class="a" width="32" height="27.424" transform="translate(128 187.424)"/><rect class="a" width="32" height="27.424" transform="translate(128 297.136)"/><rect class="a" width="32" height="32" transform="translate(128 128)"/><rect class="a" width="27.424" height="32" transform="translate(297.136 128)"/><rect class="a" width="27.424" height="32" transform="translate(242.24 128)"/><rect class="a" width="27.424" height="32" transform="translate(187.424 128)"/><rect class="a" width="32" height="32" transform="translate(352 128)"/><rect class="a" width="32" height="27.424" transform="translate(352 242.24)"/><rect class="a" width="32" height="27.424" transform="translate(352 187.424)"/><rect class="a" width="32" height="27.424" transform="translate(352 297.136)"/></svg>