<svg xmlns="http://www.w3.org/2000/svg" viewBox="0 0 497.925 511.999"><defs><style>.a{fill:rgba(0,0,0,0.8);}</style></defs><g transform="translate(-0.5 0.001)"><path class="a" d="M249.5,138.5a22.133,22.133,0,1,0,22.133,22.133A22.157,22.157,0,0,0,249.5,138.5Zm0,29.3a7.17,7.17,0,1,1,7.172-7.172A7.179,7.179,0,0,1,249.5,167.8Zm0,0"/><path class="a" d="M249.5,225.41a22.133,22.133,0,1,0,22.133,22.133A22.159,22.159,0,0,0,249.5,225.41Zm0,29.3a7.17,7.17,0,1,1,7.172-7.168A7.175,7.175,0,0,1,249.5,254.711Zm0,0"/><path class="a" d="M249.5,312.316a22.135,22.135,0,1,0,22.133,22.133A22.159,22.159,0,0,0,249.5,312.316Zm0,29.3a7.17,7.17,0,1,1,7.172-7.172A7.176,7.176,0,0,1,249.5,341.621Zm0,0"/><path class="a" d="M249.5,399.227a22.133,22.133,0,1,0,22.133,22.133A22.159,22.159,0,0,0,249.5,399.227Zm0,29.3a7.168,7.168,0,1,1,7.172-7.168A7.175,7.175,0,0,1,249.5,428.528Zm0,0"/><path class="a" d="M43.262,146.207a7.48,7.48,0,1,0-13.8-5.785L2.008,205.879c-4.461,10.6,1.465,23.492,11.379,28.449L66.4,261.168a23.069,23.069,0,0,0,30.234-8.5l15.516-25.1-8.512,237.48a25.849,25.849,0,0,0,17.105,25.313c79.766,28.828,177.609,28.887,257.52,0a25.85,25.85,0,0,0,17.105-25.312l-8.512-237.484,15.512,25.105a23.07,23.07,0,0,0,30.234,8.5s53-26.828,53.02-26.844c9.891-5.008,15.578-17.7,11.438-28.3-.02-.047-.043-.1-.062-.148L453.243,101.57A63.136,63.136,0,0,0,417.415,62.96L362.95,40.378c-2.848-12.328-9.559-23.43-20.023-33.043a27.995,27.995,0,0,0-38.641.816H194.716a27.99,27.99,0,0,0-38.637-.816c-10.465,9.613-17.18,20.715-20.027,33.043L81.591,62.96A63.125,63.125,0,0,0,45.763,101.57l-3.77,8.984a7.481,7.481,0,0,0,13.8,5.789l3.887-9.266c.082-.2.156-.391.223-.59A48.174,48.174,0,0,1,87.321,76.781L135.986,56.6a36.833,36.833,0,0,0,1.266,3.789c.008.02.016.035.023.055,6.613,17.008,22.387,30.039,36.6,40.641.074.051.145.105.215.156V489.43a326.715,326.715,0,0,1-48.262-13.145,10.938,10.938,0,0,1-7.238-10.7s9.492-264.793,9.523-265.719c.266-7.465-9.91-10.562-13.84-4.2L83.907,244.8a8.2,8.2,0,0,1-10.746,3.023L20.154,220.98a8.207,8.207,0,0,1-4.207-9.648Zm318.5-85.828a36.466,36.466,0,0,0,1.25-3.773L411.68,76.781a48.2,48.2,0,0,1,27.426,29.707,6.277,6.277,0,0,0,.219.59l43.73,104.258a8.208,8.208,0,0,1-4.2,9.645L425.84,247.824A8.2,8.2,0,0,1,415.1,244.8s-30.289-49.008-30.371-49.137c-3.934-6.367-14.109-3.3-13.84,4.2l9.523,265.719a10.938,10.938,0,0,1-7.238,10.7,325.766,325.766,0,0,1-48.156,13.121c.387-19.687-.105-98.242-.105-98.242a7.482,7.482,0,1,0-14.965,0V491.547c-35.48,5.621-72.984,5.844-120.8.664,0-124.68,0-253.289-.078-380.488,5.375,3.707,11.547,7.75,18.3,7.75a20.24,20.24,0,0,0,19.1-13.441,94.723,94.723,0,0,1,9.531-19.051,96.136,96.136,0,0,1,13.523-16.3,94.538,94.538,0,0,1,12.227,14.379,89.086,89.086,0,0,1,10.8,20.973,20.322,20.322,0,0,0,10.254,11.41c9.605,4.641,19.043-.02,27.141-5.449-.086,82.289.016,249.242.016,249.242a7.48,7.48,0,0,0,14.961,0V101.243a188.191,188.191,0,0,0,17.543-14.629c7.859-7.5,15.309-15.992,19.313-26.234ZM292.75,43.324a179.116,179.116,0,0,0,20.84-23.156A13.189,13.189,0,0,1,332.8,18.355c8.2,7.535,18.16,20.535,16.164,32.52-1.6,10.523-14.57,25.059-35.926,40.488-5.867,4.238-11.914,8.227-18.074,12.023-3.473,1.48-5.43,1.043-7.145-.617-3.863-9.207-8.238-18.285-13.961-26.492a98.132,98.132,0,0,0-10.25-12.926c.027-.012.055-.027.082-.039A115.93,115.93,0,0,0,292.75,43.324Zm-1.125-20.211c-.055.063-.109.121-.164.184C279.871,35.844,266,47.41,249.578,52.875l-.078.023-.074-.023C232.984,47.5,219.109,35.824,207.543,23.3c-.059-.062-.109-.121-.168-.184ZM150.035,50.875a13.1,13.1,0,0,1-.027-3.965c1.652-10.6,7.1-20.2,16.191-28.555a13.19,13.19,0,0,1,19.215,1.816c13.395,17.559,29.762,33.707,49.973,43.176A99.67,99.67,0,0,0,224.262,77.57,156.626,156.626,0,0,0,211.152,102.8c-1.809,1.828-3.738,2.277-8.359-.2-5.9-3.156-11.559-7.434-16.973-11.352-21.27-15.391-34.187-29.883-35.785-40.383Zm0,0"/></g></svg>