<svg xmlns="http://www.w3.org/2000/svg" viewBox="0 0 483.688 454.028"><g transform="translate(0 -14.83)"><path d="M473.6,92.43A45.987,45.987,0,0,0,438,75.93H140.7a44.978,44.978,0,0,0-23.6,6.7l-15.2-53.1a20.221,20.221,0,0,0-19.4-14.7H15.3A15.3,15.3,0,0,0,0,30.13v1.6a15.3,15.3,0,0,0,15.3,15.3H73.1l29.5,104.3,40.6,143.9a53.1,53.1,0,0,0,9.4,104.5,51.918,51.918,0,1,0,100.9,17.2,51.171,51.171,0,0,0-2.9-17.1h60.8a51.946,51.946,0,1,0,101,17.1c0-28.9-24-52-52.8-52H156.5c-9.9,0-18.3-7.7-18.7-17.5a18.177,18.177,0,0,1,18.2-18.9H398.3a45.019,45.019,0,0,0,43.6-34.1l40.4-162.6A44.7,44.7,0,0,0,473.6,92.43ZM360.5,399.73a17.1,17.1,0,1,1-17.1,17.1A17.157,17.157,0,0,1,360.5,399.73Zm-158.9,0a17.1,17.1,0,1,1-17.1,17.1A17.157,17.157,0,0,1,201.6,399.73Zm-62.8-248.6-7.8-27.5a9.593,9.593,0,0,1,1.7-8.8,9.847,9.847,0,0,1,8-4h32.6l8.9,40.4H138.8v-.1Zm9.8,34.8h41.2l8.2,37.4H159.1Zm37.9,107.6a10.053,10.053,0,0,1-9.7-7.4l-7.9-28h36.7l7.8,35.3H186.5v.1Zm87.1,0H249l-7.8-35.3h32.3v35.3Zm0-70.2h-40l-8.2-37.4h48.2Zm0-72.2H217.8l-8.9-40.4h64.7ZM336,293.53H308.5v-35.3h34.9Zm14.8-70.2H308.5v-37.4h50.2Zm-42.3-72.2v-40.4h66l-8.5,40.4Zm99.7,134.8a10.065,10.065,0,0,1-9.8,7.7H371.6l7.5-35.3h36Zm15.5-62.6H386.4l7.9-37.4H433Zm24.8-100.1-6.9,27.8h-40l8.5-40.4h28.6a9.592,9.592,0,0,1,7.9,3.9A9.709,9.709,0,0,1,448.5,123.23Z"/></g></svg>