<svg xmlns="http://www.w3.org/2000/svg" viewBox="0 0 31.71 30.086"><defs><style>.a{fill:#fff;}</style></defs><g transform="translate(0)"><path class="a" d="M9.714,31.54H28.4L31.71,21.026H6.478l-.809-2.882a3.527,3.527,0,0,0-3.443-2.461H0v1.2H2.226a2.2,2.2,0,0,1,2.161,1.5L7.966,30.866a2.537,2.537,0,0,0-1.223,2.127,2.85,2.85,0,0,0,2.97,2.646H27.93v-1.2H9.714a1.456,1.456,0,1,1,0-2.894Zm20.243-9.373-2.563,8.174H9.176L6.814,22.168Z" transform="translate(0 -15.683)"/><path class="a" d="M373.755,487.171a3.738,3.738,0,0,0,0,7.476,3.7,3.7,0,0,0,3.738-3.738A3.759,3.759,0,0,0,373.755,487.171Zm0,5.786a2.048,2.048,0,0,1,0-4.1,2.012,2.012,0,0,1,2.048,2.048A2.07,2.07,0,0,1,373.755,492.957Z" transform="translate(-352.185 -464.561)"/><path class="a" d="M173.064,487.171a3.738,3.738,0,1,0,3.738,3.738A3.759,3.759,0,0,0,173.064,487.171Zm0,5.786a2.048,2.048,0,1,1,2.048-2.048A2.071,2.071,0,0,1,173.064,492.957Z" transform="translate(-161.166 -464.561)"/></g></svg>