<svg xmlns="http://www.w3.org/2000/svg" viewBox="0 0 511.999 450"><g transform="translate(-1802 -965)"><path d="M164.961,300h.023c.02,0,.039,0,.059,0H437a15,15,0,0,0,14.422-10.879l60-210A15,15,0,0,0,497,60H130.367L119.644,11.746A15,15,0,0,0,105,0H15a15,15,0,1,0,0,30H92.969c1.9,8.551,51.312,230.918,54.156,243.711A44.995,44.995,0,0,0,165,360H437a15,15,0,0,0,0-30H165a15,15,0,0,1-.039-30ZM477.113,90l-51.43,180H177.031l-40-180Z" transform="translate(1802 965)"/><path d="M150,405a45,45,0,1,0,45-45A45.052,45.052,0,0,0,150,405Zm45-15a15,15,0,1,1-15,15A15.019,15.019,0,0,1,195,390Zm0,0" transform="translate(1802 965)"/><path d="M362,405a45,45,0,1,0,45-45A45.052,45.052,0,0,0,362,405Zm45-15a15,15,0,1,1-15,15A15.019,15.019,0,0,1,407,390Zm0,0" transform="translate(1802 965)"/></g></svg>