<svg xmlns="http://www.w3.org/2000/svg" viewBox="0 0 922.544 922.544"><defs><style>.a,.b,.e{fill:none;}.b{stroke:#1f1f20;stroke-width:32px;}.c,.d{stroke:none;}.d{fill:#1f1f20;}</style></defs><g transform="translate(-2811.728 2396.272)"><g transform="translate(495.728 1682.728)"><g class="a" transform="translate(2454.305 -3545.68)"><path class="c" d="M0,257.291C33.6,109.95,165.445,0,322.967,0S612.33,109.951,645.933,257.292A459.754,459.754,0,0,1,322.967,389.224,459.755,459.755,0,0,1,0,257.291Z"/><path class="d" d="M 322.9668579101563 357.2239990234375 C 429.9530029296875 357.2239990234375 531.247802734375 318.2083740234375 610.2154541015625 246.9681549072266 C 573.1602783203125 119.5132293701172 457.498046875 31.99998474121094 322.9668579101563 31.99998474121094 C 188.4354553222656 31.99998474121094 72.77297210693359 119.5129623413086 35.71764755249023 246.9676055908203 C 114.6854400634766 318.2081298828125 215.9805908203125 357.2239990234375 322.9668579101563 357.2239990234375 M 322.9668579101563 389.2239990234375 C 197.2070770263672 389.2239990234375 83.20919036865234 338.9039916992188 -3.333875793032348e-05 257.2914428710938 C 33.60352325439453 109.9503173828125 165.4452972412109 -1.574706948304083e-05 322.9668579101563 -1.574706948304083e-05 C 480.4883117675781 -1.574706948304083e-05 612.3297729492188 109.9508743286133 645.93310546875 257.2919921875 C 562.7237548828125 338.904541015625 448.7265319824219 389.2239990234375 322.9668579101563 389.2239990234375 Z"/></g><g class="b" transform="translate(2316 -4079)"><circle class="c" cx="461.272" cy="461.272" r="461.272"/><circle class="e" cx="461.272" cy="461.272" r="445.272"/></g><g class="b" transform="translate(2580.176 -3908.654)"><circle class="c" cx="197.096" cy="197.096" r="197.096"/><circle class="e" cx="197.096" cy="197.096" r="181.096"/></g></g></g></svg>