<svg xmlns="http://www.w3.org/2000/svg" viewBox="0 0 36 36"><defs><style>.a{fill:#eee;}</style></defs><g transform="translate(-1204 -22)"><circle class="a" cx="18" cy="18" r="18" transform="translate(1204 22)"/><g transform="translate(1213 29)"><path d="M92.51,10.956a5.3,5.3,0,0,0,3.873-1.6,5.3,5.3,0,0,0,1.6-3.873,5.3,5.3,0,0,0-1.6-3.873,5.477,5.477,0,0,0-7.747,0,5.3,5.3,0,0,0-1.6,3.873,5.3,5.3,0,0,0,1.6,3.873A5.3,5.3,0,0,0,92.51,10.956ZM89.579,2.547a4.144,4.144,0,0,1,5.862,0,3.96,3.96,0,0,1,1.215,2.931,3.96,3.96,0,0,1-1.215,2.931,4.143,4.143,0,0,1-5.862,0,3.96,3.96,0,0,1-1.215-2.931,3.96,3.96,0,0,1,1.215-2.931Zm0,0" transform="translate(-83.166 0)"/><path d="M18.93,253.819a13.53,13.53,0,0,0-.184-1.437,11.323,11.323,0,0,0-.353-1.445,7.135,7.135,0,0,0-.594-1.348,5.078,5.078,0,0,0-.9-1.167,3.948,3.948,0,0,0-1.287-.808,4.446,4.446,0,0,0-1.643-.3,1.667,1.667,0,0,0-.89.378c-.267.174-.579.375-.928.6a5.315,5.315,0,0,1-1.2.529,4.66,4.66,0,0,1-2.936,0,5.3,5.3,0,0,1-1.2-.529c-.345-.221-.657-.422-.928-.6a1.666,1.666,0,0,0-.89-.378,4.441,4.441,0,0,0-1.642.3,3.947,3.947,0,0,0-1.287.808,5.081,5.081,0,0,0-.9,1.167,7.153,7.153,0,0,0-.594,1.348,11.351,11.351,0,0,0-.353,1.445,13.439,13.439,0,0,0-.184,1.438c-.03.434-.045.886-.045,1.343a3.777,3.777,0,0,0,1.122,2.857,4.038,4.038,0,0,0,2.89,1.054H14.964a4.038,4.038,0,0,0,2.89-1.054,3.775,3.775,0,0,0,1.122-2.857c0-.458-.016-.91-.046-1.344Zm-1.995,3.235a2.718,2.718,0,0,1-1.971.687H4.012a2.719,2.719,0,0,1-1.971-.687,2.466,2.466,0,0,1-.708-1.892c0-.426.014-.847.042-1.251a12.123,12.123,0,0,1,.167-1.294,10.012,10.012,0,0,1,.311-1.274,5.822,5.822,0,0,1,.483-1.1,3.765,3.765,0,0,1,.658-.863,2.619,2.619,0,0,1,.856-.532,3.065,3.065,0,0,1,1.05-.2c.047.025.13.072.264.16.274.179.59.382.939.605a6.608,6.608,0,0,0,1.506.673,5.992,5.992,0,0,0,3.756,0,6.607,6.607,0,0,0,1.507-.674c.357-.228.664-.426.938-.6.135-.088.218-.135.264-.16a3.067,3.067,0,0,1,1.05.2,2.622,2.622,0,0,1,.856.532,3.755,3.755,0,0,1,.658.863,5.8,5.8,0,0,1,.484,1.1,9.982,9.982,0,0,1,.311,1.274,12.221,12.221,0,0,1,.167,1.295h0c.028.4.043.823.043,1.25a2.466,2.466,0,0,1-.708,1.892Zm0,0" transform="translate(0 -236.33)"/></g></g></svg>