<svg xmlns="http://www.w3.org/2000/svg" viewBox="0 0 504 152.8"><defs><style>.a{fill:#3c58bf;}.b{fill:#293688;}.c{fill:#ffbc00;}.d{fill:#f7981d;}.e{fill:#ed7c00;}.f{fill:#051244;}</style></defs><g transform="translate(0 -175.6)"><path class="a" d="M184.8,324.4l25.6-144h40l-24.8,144Z"/><path class="b" d="M184.8,324.4l32.8-144h32.8l-24.8,144Z"/><path class="a" d="M370.4,182c-8-3.2-20.8-6.4-36.8-6.4-40,0-68.8,20-68.8,48.8,0,21.6,20,32.8,36,40s20.8,12,20.8,18.4c0,9.6-12.8,14.4-24,14.4-16,0-24.8-2.4-38.4-8l-5.6-2.4L248,319.6c9.6,4,27.2,8,45.6,8,42.4,0,70.4-20,70.4-50.4,0-16.8-10.4-29.6-34.4-40-14.4-7.2-23.2-11.2-23.2-18.4,0-6.4,7.2-12.8,23.2-12.8,13.6,0,23.2,2.4,30.4,5.6l4,1.6,6.4-31.2Z"/><path class="b" d="M370.4,182c-8-3.2-20.8-6.4-36.8-6.4-40,0-61.6,20-61.6,48.8,0,21.6,12.8,32.8,28.8,40s20.8,12,20.8,18.4c0,9.6-12.8,14.4-24,14.4-16,0-24.8-2.4-38.4-8l-5.6-2.4L248,319.6c9.6,4,27.2,8,45.6,8,42.4,0,70.4-20,70.4-50.4,0-16.8-10.4-29.6-34.4-40-14.4-7.2-23.2-11.2-23.2-18.4,0-6.4,7.2-12.8,23.2-12.8,13.6,0,23.2,2.4,30.4,5.6l4,1.6,6.4-31.2Z"/><path class="a" d="M439.2,180.4c-9.6,0-16.8.8-20.8,10.4l-60,133.6h43.2l8-24h51.2l4.8,24H504l-33.6-144Zm-18.4,96c2.4-7.2,16-42.4,16-42.4s3.2-8.8,5.6-14.4l2.4,13.6s8,36,9.6,44H420.8Z"/><path class="b" d="M448.8,180.4c-9.6,0-16.8.8-20.8,10.4L358.4,324.4h43.2l8-24h51.2l4.8,24H504l-33.6-144Zm-28,96c3.2-8,16-42.4,16-42.4s3.2-8.8,5.6-14.4l2.4,13.6s8,36,9.6,44H420.8Z"/><path class="a" d="M111.2,281.2l-4-20.8c-7.2-24-30.4-50.4-56-63.2l36,128h43.2l64.8-144H152Z"/><path class="b" d="M111.2,281.2l-4-20.8c-7.2-24-30.4-50.4-56-63.2l36,128h43.2l64.8-144H160Z"/><path class="c" d="M0,180.4,7.2,182c51.2,12,86.4,42.4,100,78.4l-14.4-68c-2.4-9.6-9.6-12-18.4-12Z"/><path class="d" d="M0,180.4H0c51.2,12,93.6,43.2,107.2,79.2L93.6,202.8a19.528,19.528,0,0,0-19.2-15.2Z"/><path class="e" d="M0,180.4H0c51.2,12,93.6,43.2,107.2,79.2l-9.6-31.2c-2.4-9.6-5.6-19.2-16.8-23.2Z"/><path class="f" d="M151.2,276.4,124,249.2l-12.8,30.4-3.2-20c-7.2-24-30.4-50.4-56-63.2l36,128h43.2Z"/><path class="f" d="M225.6,324.4l-34.4-35.2-6.4,35.2Z"/><path class="f" d="M317.6,274.8h0c3.2,3.2,4.8,5.6,4,8.8,0,9.6-12.8,14.4-24,14.4-16,0-24.8-2.4-38.4-8l-5.6-2.4L248,320.4c9.6,4,27.2,8,45.6,8,25.6,0,46.4-7.2,58.4-20Z"/><path class="f" d="M364,324.4h37.6l8-24h51.2l4.8,24H504L490.4,266l-48-46.4,2.4,12.8s8,36,9.6,44H420.8c3.2-8,16-42.4,16-42.4s3.2-8.8,5.6-14.4"/></g></svg>